<?xml version="1.0" encoding="utf-8"?>
<!-- Generator: Adobe Illustrator 19.0.0, SVG Export Plug-In . SVG Version: 6.00 Build 0)  -->
<svg version="1.1" id="Layer_1" xmlns="http://www.w3.org/2000/svg" xmlns:xlink="http://www.w3.org/1999/xlink" x="0px" y="0px"
	 viewBox="0 0 442.5 132.8" style="enable-background:new 0 0 442.5 132.8;" xml:space="preserve">
<style type="text/css">
	.st0{fill:#ED1C24;}
</style>
<g id="XMLID_36_">
	<g id="XMLID_4_">
		<g id="Logo-Copy_8_" transform="translate(46.000000, 89.000000)">
			<g id="Group-30_8_">
				<path id="Fill-252_8_" class="st0" d="M-20-17.6C-7-4.6,14-4.6,27-17.6c1.6-1.6,1.6-4.3,0-5.9s-4.3-1.6-5.8,0
					c-4.9,4.9-11.2,7.3-17.6,7.3s-12.8-2.4-17.6-7.3c-1.6-1.6-4.3-1.6-5.9,0C-21.6-21.8-21.6-19.2-20-17.6"/>
				<circle id="Oval-2_17_" class="st0" cx="-10.4" cy="-48.7" r="7.1"/>
				<circle id="Oval-2_16_" class="st0" cx="18" cy="-48.7" r="7.1"/>
				<path id="Fill-253_8_" class="st0" d="M-8.7,35.5h24.9c2.3,0,4.1-1.9,4.1-4.2c0-2.3-1.9-4.1-4.1-4.1H-8.7
					c-2.3,0-4.1,1.9-4.1,4.1S-10.9,35.5-8.7,35.5"/>
				<path id="Fill-254_8_" class="st0" d="M-12.8,18.9h33.2c2.3,0,4.2-1.9,4.2-4.1s-1.9-4.2-4.2-4.2h-33.2c-2.3,0-4.2,1.9-4.2,4.2
					S-15.1,18.9-12.8,18.9"/>
				<path id="Fill-255_8_" class="st0" d="M30.1-7.2c-5.8,4.7-9.7,11.7-9.7,19.6v14.9h-7.9l-1,2.8c-1.1,3.1-4.2,5.5-7.8,5.5
					c-3.6,0-6.7-2.4-7.9-5.6l-1-2.7h-7.7V12.3c0-7.9-4.1-14.9-9.8-19.6h0c-9.2-7.6-15.1-19.1-15.1-32c0-11.4,4.7-21.8,12.2-29.3
					C-18-76.1-7.7-80.7,3.8-80.7c11.4,0,21.8,4.7,29.3,12.2c7.5,7.5,12.2,17.9,12.2,29.3C45.3-26.3,39.4-14.8,30.1-7.2L30.1-7.2z
					 M3.8-89C-23.6-89-46-66.7-46-39.2c0,15.5,7.1,29.3,18.1,38.4l0,0c4.2,3.4,6.8,8.1,6.8,13.1v14.9c0,2.2,0.9,4.4,2.4,5.9
					c1.5,1.5,3.6,2.4,5.9,2.4h2.2c2.9,4.9,8.2,8.3,14.4,8.3c6.1,0,11.5-3.3,14.3-8.3h2.3c2.2,0,4.4-0.9,5.9-2.4
					c1.5-1.5,2.4-3.6,2.4-5.9V12.4c0-5,2.5-9.7,6.7-13.1c11.1-9.1,18.2-22.9,18.2-38.4C53.6-66.7,31.3-89,3.8-89L3.8-89z"/>
			</g>
		</g>
	</g>
	<g id="XMLID_2_">
		<path id="XMLID_3_" class="st0" d="M107.1,65.5c0-5.6,1-10.6,2.9-14.9c1.9-4.4,4.5-8.1,7.7-11.1c3.2-3,6.9-5.4,11.1-7
			c4.2-1.6,8.5-2.4,13-2.4c4.5,0,8.8,0.8,13,2.4c4.2,1.6,7.8,3.9,11.1,7c3.2,3,5.8,6.8,7.7,11.1c2,4.4,2.9,9.4,2.9,14.9
			c0,5.1-0.8,9.6-2.4,13.7c-1.6,4.1-3.7,7.6-6.4,10.6l8.1,9l-7.8,6.6l-8.4-9.1c-2.7,1.5-5.5,2.7-8.6,3.5c-3,0.8-6.1,1.2-9.2,1.2
			c-4.5,0-8.8-0.8-13-2.4c-4.2-1.6-7.9-3.9-11.1-7c-3.2-3-5.8-6.8-7.7-11.2C108,76,107.1,71,107.1,65.5z M118.9,65.5
			c0,4.1,0.7,7.7,2,10.8c1.3,3.1,3,5.6,5.1,7.7c2.1,2.1,4.5,3.6,7.3,4.6c2.7,1,5.5,1.5,8.4,1.5c1.7,0,3.5-0.2,5.2-0.5
			c1.7-0.4,3.4-0.9,5-1.7l-11.2-12.5l7.9-6.7l11.3,12.6c1.5-2,2.6-4.3,3.5-6.9c0.8-2.6,1.2-5.6,1.2-8.9c0-4.1-0.7-7.7-2-10.8
			c-1.3-3.1-3-5.6-5.1-7.7c-2.1-2-4.6-3.6-7.3-4.6c-2.8-1-5.6-1.5-8.5-1.5c-2.9,0-5.7,0.5-8.4,1.5c-2.7,1-5.1,2.6-7.3,4.6
			c-2.1,2.1-3.8,4.6-5.1,7.7C119.6,57.8,118.9,61.4,118.9,65.5z"/>
		<path id="XMLID_9_" class="st0" d="M218,94.4c-1.2,2.1-3,3.7-5.4,4.9c-2.5,1.1-5.1,1.7-7.8,1.7c-2.8,0-5.3-0.5-7.5-1.4
			c-2.2-1-4-2.3-5.5-4c-1.5-1.7-2.7-3.7-3.5-5.9c-0.8-2.2-1.2-4.7-1.2-7.3V52.8h11.2v27.5c0,1.5,0.2,2.9,0.5,4.1
			c0.4,1.3,0.9,2.4,1.7,3.4c0.8,1,1.7,1.7,2.9,2.3c1.2,0.6,2.6,0.9,4.3,0.9c3.3,0,5.7-1,7.4-2.9c1.6-2,2.5-4.5,2.5-7.5V52.8h11.2V91
			c0,1.9,0,3.6,0.1,5c0.1,1.4,0.2,2.6,0.3,3.5h-10.7c-0.1-0.5-0.2-1.3-0.3-2.3C218,96.3,218,95.4,218,94.4z"/>
		<path id="XMLID_11_" class="st0" d="M240.7,36.3c0-2.1,0.7-3.8,2.1-5.2c1.4-1.4,3.1-2.1,5.1-2.1c2.1,0,3.8,0.7,5.2,2.1
			c1.4,1.4,2.1,3.1,2.1,5.2c0,2.1-0.7,3.8-2.1,5.1c-1.4,1.4-3.1,2.1-5.2,2.1c-2,0-3.7-0.7-5.1-2.1C241.4,40.1,240.7,38.4,240.7,36.3
			z M242.4,99.6V52.8h11.1v46.8H242.4z"/>
		<path id="XMLID_14_" class="st0" d="M264.7,99.6v-9.7l23.7-27.3h-23.3v-9.8h37.3v9.4l-24,27.6H303v9.8H264.7z"/>
		<path id="XMLID_16_" class="st0" d="M334.9,51.3c3.5,0,6.8,0.6,9.7,1.9c2.9,1.2,5.5,3,7.7,5.2c2.2,2.2,3.9,4.8,5.1,7.8
			c1.2,3,1.8,6.3,1.8,9.9c0,3.6-0.6,6.9-1.8,9.9c-1.2,3-2.9,5.7-5.1,7.9c-2.2,2.2-4.7,3.9-7.7,5.2c-2.9,1.2-6.2,1.9-9.7,1.9
			c-3.5,0-6.7-0.6-9.7-1.9c-3-1.2-5.5-3-7.7-5.2c-2.1-2.2-3.8-4.8-5-7.9c-1.2-3-1.8-6.4-1.8-9.9c0-3.6,0.6-6.9,1.8-9.9
			c1.2-3,2.9-5.6,5-7.8c2.1-2.2,4.7-3.9,7.7-5.2C328.2,52,331.4,51.3,334.9,51.3z M334.9,91c1.7,0,3.4-0.3,5-1
			c1.6-0.6,3-1.6,4.2-2.8c1.2-1.2,2.2-2.8,2.9-4.7c0.7-1.9,1.1-4,1.1-6.4c0-2.4-0.4-4.6-1.1-6.4c-0.7-1.8-1.7-3.4-2.9-4.6
			c-1.2-1.2-2.6-2.2-4.2-2.8c-1.6-0.6-3.2-0.9-5-0.9c-1.7,0-3.4,0.3-4.9,0.9c-1.6,0.6-2.9,1.5-4.1,2.8c-1.2,1.2-2.1,2.8-2.9,4.6
			c-0.7,1.8-1.1,4-1.1,6.4c0,2.4,0.4,4.6,1.1,6.4c0.7,1.9,1.7,3.4,2.9,4.7c1.2,1.2,2.6,2.2,4.1,2.8C331.5,90.7,333.2,91,334.9,91z"
			/>
		<path id="XMLID_19_" class="st0" d="M384,52.8h9.7v9.9H384v21.7c0,2.1,0.5,3.5,1.4,4.5c1,0.9,2.5,1.4,4.5,1.4c0.8,0,1.5,0,2.3-0.1
			c0.8-0.1,1.3-0.2,1.5-0.2v9.2c-0.3,0.1-1,0.3-2.1,0.6c-1.1,0.3-2.7,0.4-4.7,0.4c-4.4,0-7.8-1.2-10.3-3.7
			c-2.5-2.4-3.7-5.9-3.7-10.3V62.7h-8.7v-9.9h2.4c2.5,0,4.3-0.7,5.5-2.1c1.2-1.4,1.7-3.1,1.7-5.2v-7H384V52.8z"/>
		<path id="XMLID_21_" class="st0" d="M401.4,86.9c0-2.1,0.4-4,1.1-5.6c0.7-1.6,1.7-3,3-4.2c1.2-1.2,2.7-2.1,4.5-2.8
			c1.7-0.7,3.6-1.2,5.6-1.5l12-1.8c1.3-0.2,2.3-0.6,2.7-1.2c0.5-0.6,0.7-1.3,0.7-2.2c0-2-0.7-3.7-2.1-5c-1.4-1.4-3.7-2.1-6.7-2.1
			c-2.9,0-5.2,0.8-6.8,2.5c-1.6,1.6-2.5,3.6-2.8,6l-10.2-2.3c0.2-2,0.8-3.9,1.8-5.8c1-1.9,2.4-3.5,4-4.9c1.7-1.4,3.7-2.5,6-3.4
			c2.3-0.8,5-1.2,7.8-1.2c3.6,0,6.6,0.5,9.2,1.4c2.5,1,4.6,2.2,6.2,3.8c1.6,1.6,2.7,3.5,3.5,5.6c0.7,2.1,1.1,4.3,1.1,6.6v23.3
			c0,2.1,0.1,3.8,0.2,5.1c0.2,1.3,0.3,2.1,0.3,2.4h-10.4c-0.1-0.1-0.2-0.7-0.3-1.7c-0.1-1-0.2-2.4-0.2-4.3c-1.1,1.8-2.8,3.5-5.2,5
			c-2.4,1.6-5.4,2.4-9.2,2.4c-2.4,0-4.6-0.4-6.6-1.2c-2-0.8-3.6-1.8-5-3.1c-1.4-1.3-2.4-2.8-3.2-4.5
			C401.8,90.5,401.4,88.8,401.4,86.9z M419.4,92.3c1.5,0,3-0.2,4.4-0.6c1.4-0.4,2.6-1.1,3.7-2c1.1-0.9,1.9-2.2,2.5-3.7
			c0.6-1.5,1-3.5,1-5.8v-2.1l-12.2,1.8c-1.7,0.3-3.2,1-4.4,2c-1.2,1-1.8,2.5-1.8,4.4c0,1.6,0.6,3,1.7,4.2
			C415.4,91.7,417.1,92.3,419.4,92.3z"/>
	</g>
</g>
</svg>
