<?xml version="1.0" standalone="no"?>
<!DOCTYPE svg PUBLIC "-//W3C//DTD SVG 1.1//EN" "http://www.w3.org/Graphics/SVG/1.1/DTD/svg11.dtd" >
<svg xmlns="http://www.w3.org/2000/svg">
<metadata></metadata>
<defs>
<font id="the_waveregular" horiz-adv-x="1245" >
<font-face units-per-em="2048" ascent="1536" descent="-512" />
<missing-glyph horiz-adv-x="409" />
<glyph horiz-adv-x="0" />
<glyph horiz-adv-x="682" />
<glyph unicode=" "  horiz-adv-x="409" />
<glyph unicode="&#x09;" horiz-adv-x="409" />
<glyph unicode="&#xa0;" horiz-adv-x="409" />
<glyph unicode="!" horiz-adv-x="581" d="M158 113q0 57 38.5 96t94.5 39q57 0 96 -39t39 -96q0 -56 -39 -94.5t-96 -38.5q-55 0 -94 39t-39 94zM195 1499h192l-51 -987h-90z" />
<glyph unicode="&#x22;" horiz-adv-x="907" d="M160 1499h217l-55 -536h-107zM528 1499h217l-55 -536h-106z" />
<glyph unicode="#" d="M125 537v139h219l43 250h-262v139h287l77 436h140l-78 -436h250l78 436h139l-78 -436h180v-139h-205l-43 -250h248v-139h-272l-94 -537h-140l95 537h-250l-94 -537h-140l94 537h-194zM483 676h250l43 250h-250z" />
<glyph unicode="$" d="M117 328l143 94q113 -69 291 -78v379q-50 11 -84.5 19.5t-80 23.5t-76 31t-63 40t-51.5 52t-31.5 66.5t-12.5 84.5q0 60 22.5 109.5t60.5 83.5t90 58.5t108 38t118 18.5v172h149v-177q103 -11 204 -47.5t165 -89.5l-137 -92q-123 54 -232 68v-332q68 -16 115.5 -30.5 t103 -40t89 -55.5t56.5 -76.5t23 -104.5q0 -150 -109 -243t-278 -114v-206h-149v202q-131 10 -267 60t-167 86zM322 1053q0 -65 58.5 -102t170.5 -66v301q-62 -3 -111 -16t-83.5 -43t-34.5 -74zM700 346q96 11 157 54t61 116q0 69 -56.5 108t-161.5 66v-344z" />
<glyph unicode="%" horiz-adv-x="1878" d="M102 1114q0 162 104.5 273.5t262.5 111.5t261.5 -111.5t103.5 -273.5q0 -160 -103.5 -271.5t-261.5 -111.5t-262.5 111.5t-104.5 271.5zM256 1114q0 -97 60 -165t153 -68t153 68t60 165t-60 165.5t-153 68.5t-153 -68.5t-60 -165.5zM477 -20l772 1540h164l-770 -1540 h-166zM1044 362q0 162 104.5 274t262.5 112t261.5 -112t103.5 -274q0 -160 -103.5 -271t-261.5 -111t-262.5 111t-104.5 271zM1198 362q0 -97 60 -165t153 -68t153 68t60 165t-60 165.5t-153 68.5t-153 -68.5t-60 -165.5z" />
<glyph unicode="&#x26;" horiz-adv-x="1314" d="M72 399q0 141 93.5 255t235.5 188q-157 199 -157 346q0 83 31.5 148t86.5 104.5t124.5 59.5t150.5 20q140 0 238 -88.5t98 -223.5q0 -59 -22 -113.5t-54.5 -94.5t-80.5 -79t-88.5 -63.5t-90.5 -50.5l317 -401q113 189 113 393h172q0 -137 -47.5 -273.5t-132.5 -249.5 l219 -276h-223l-115 147q-195 -167 -428 -167q-123 0 -222 48t-158.5 144.5t-59.5 226.5zM242 412q0 -131 81 -209t207 -78q172 0 318 143l-367 471q-239 -138 -239 -327zM412 1196q0 -102 145 -287l2 -4q244 129 244 291q0 86 -57 136t-130 50q-79 0 -141.5 -51t-62.5 -135 z" />
<glyph unicode="'" horiz-adv-x="538" d="M160 1499h217l-55 -536h-107z" />
<glyph unicode="(" horiz-adv-x="854" d="M254 612q0 556 405 1012l89 -72q-151 -201 -231.5 -442t-80.5 -498q0 -259 84 -496.5t246 -439.5l-86 -86q-56 59 -107 124t-112 165.5t-104.5 206t-73 244.5t-29.5 282z" />
<glyph unicode=")" horiz-adv-x="854" d="M88 -324q162 202 246 439.5t84 496.5q0 257 -80.5 498t-231.5 442l89 72q405 -456 405 -1012q0 -143 -29.5 -282t-73 -244.5t-104.5 -206t-112 -165.5t-107 -124z" />
<glyph unicode="*" horiz-adv-x="837" d="M61 1204l48 131l264 -106l-27 270h152l-33 -276l264 110l47 -125l-284 -59l188 -215l-121 -72l-145 234l-142 -234l-122 76l198 215z" />
<glyph unicode="+" d="M197 530v156h348v369h155v-369h349v-156h-349v-368h-155v368h-348z" />
<glyph unicode="," horiz-adv-x="432" d="M76 -254q82 119 100 238q-43 10 -68.5 46t-25.5 83q0 57 36 96t91 39q56 0 91.5 -38.5t35.5 -96.5q0 -167 -180 -410z" />
<glyph unicode="-" horiz-adv-x="827" d="M102 567v158h623v-158h-623z" />
<glyph unicode="." horiz-adv-x="432" d="M82 113q0 57 38.5 96t94.5 39q57 0 96 -39t39 -96q0 -56 -39 -94.5t-96 -38.5q-55 0 -94 39t-39 94z" />
<glyph unicode="/" horiz-adv-x="1024" d="M0 -102l854 1699h170l-854 -1699h-170z" />
<glyph unicode="0" d="M111 748q0 375 133.5 573.5t378.5 198.5t378.5 -198.5t133.5 -573.5q0 -371 -134 -569.5t-378 -198.5t-378 198.5t-134 569.5zM285 748q0 -307 89 -460t249 -153t249 153t89 460q0 308 -89 461t-249 153t-249 -153t-89 -461z" />
<glyph unicode="1" d="M242 1051v131h14q87 0 142 11.5t102 46.5t79.5 96.5t61.5 162.5h141v-1499h-166v1051h-374z" />
<glyph unicode="2" d="M45 0l715 803q49 55 83 126t34 138q0 139 -87 217t-231 78q-57 0 -116 -21t-106.5 -54t-82 -64.5t-59.5 -61.5l-119 121q69 87 208 162.5t287 75.5q216 0 353 -122.5t137 -330.5q0 -63 -13 -116.5t-44.5 -106t-63.5 -93t-88 -102.5l-457 -499h719v-150h-1069z" />
<glyph unicode="3" d="M55 246l183 55q28 -54 119.5 -111t201.5 -57q149 0 257 100.5t108 251.5q0 90 -31.5 156.5t-88 105t-128.5 56.5t-160 18h-102l-31 101l360 428h-637v149h969l-448 -532q209 0 341 -130t132 -345q0 -117 -45 -215t-120.5 -162t-173 -99.5t-204.5 -35.5q-325 0 -502 266z " />
<glyph unicode="4" d="M104 340v158l476 1001h190l-485 -1007h585v636h177v-1128h-179v340h-764z" />
<glyph unicode="5" d="M57 246l183 55q29 -57 111.5 -112.5t191.5 -55.5q168 0 265 102t97 250q0 150 -102 247t-295 97h-330l103 670h692v-149h-543l-55 -365h198q144 0 262 -69t182 -181.5t64 -242.5q0 -105 -39.5 -199t-109 -163t-171 -109.5t-220.5 -40.5q-95 0 -174 22.5t-137 63.5t-97 83 t-76 97z" />
<glyph unicode="6" d="M117 492q0 165 94 296l516 711h209l-375 -502q56 7 68 7q212 0 362 -150t150 -362t-150 -362t-362 -150t-362 150t-150 362zM291 492q0 -141 98.5 -241.5t239.5 -100.5t241.5 100.5t100.5 241.5t-100.5 241.5t-241.5 100.5t-239.5 -100.5t-98.5 -241.5z" />
<glyph unicode="7" d="M82 1350v149h1008l-603 -1499h-206l587 1350h-786z" />
<glyph unicode="8" d="M111 418q0 76 24 143t64 114.5t84 80t92 53.5q-36 16 -72 43t-71.5 65.5t-57.5 93.5t-22 115q0 117 64 208t171 138.5t236 47.5q208 0 339.5 -108t131.5 -286q0 -60 -21.5 -114.5t-56.5 -93t-70.5 -65t-71.5 -42.5q48 -20 91.5 -53.5t83 -81.5t63 -115t23.5 -143 q0 -106 -42 -191.5t-113.5 -139t-162.5 -82t-194 -28.5t-194 28.5t-162.5 82t-113.5 139t-42 191.5zM285 418q0 -125 101 -207t237 -82q139 0 238.5 81.5t99.5 207.5q0 142 -100.5 225.5t-237.5 83.5q-89 0 -164.5 -35t-124.5 -106.5t-49 -167.5zM326 1137q0 -109 83 -186 t214 -77q130 0 213.5 77t83.5 186q0 108 -86 171.5t-211 63.5q-127 0 -212 -63t-85 -172z" />
<glyph unicode="9" d="M100 1010q0 139 68.5 256.5t186.5 185.5t257 68t257 -68t186.5 -185.5t68.5 -256.5q0 -170 -94 -299l-516 -711h-209l375 504q-54 -6 -68 -6q-212 0 -362 150t-150 362zM272 1010q0 -141 99.5 -241.5t240.5 -100.5t239.5 100.5t98.5 241.5t-98.5 240.5t-239.5 99.5 t-240.5 -99.5t-99.5 -240.5z" />
<glyph unicode=":" horiz-adv-x="684" d="M207 113q0 57 38.5 96t94.5 39q57 0 96 -39t39 -96q0 -56 -39 -94.5t-96 -38.5q-56 0 -94.5 39t-38.5 94zM207 1014q0 56 39 95.5t94 39.5q57 0 96 -39.5t39 -95.5t-39 -94.5t-96 -38.5q-56 0 -94.5 38.5t-38.5 94.5z" />
<glyph unicode=";" horiz-adv-x="684" d="M207 1014q0 56 39 95.5t94 39.5q57 0 96 -39.5t39 -95.5t-39 -94.5t-96 -38.5q-56 0 -94.5 38.5t-38.5 94.5zM209 -254q82 119 100 238q-43 10 -68.5 46t-25.5 83q0 57 36 96t91 39q56 0 91.5 -38.5t35.5 -96.5q0 -167 -180 -410z" />
<glyph unicode="&#x3c;" d="M197 539v139l852 436v-170l-684 -336l684 -336v-170z" />
<glyph unicode="=" d="M197 326v155h852v-155h-852zM197 727v156h852v-156h-852z" />
<glyph unicode="&#x3e;" d="M197 102v170l684 336l-684 336v170l852 -436v-139z" />
<glyph unicode="?" horiz-adv-x="1024" d="M20 1354q59 59 177 112.5t227 53.5q207 0 338 -108.5t131 -311.5q0 -74 -28.5 -142t-72.5 -125t-91 -114t-91 -132.5t-65 -156.5h-158q21 91 56 168t71 125.5t74.5 97t67.5 86t48 89.5t19 112q0 120 -83.5 185t-207.5 65q-88 0 -179.5 -40t-143.5 -89zM332 113 q0 57 39.5 96t95.5 39t94.5 -39t38.5 -96q0 -55 -39 -94t-94 -39q-56 0 -95.5 39t-39.5 94z" />
<glyph unicode="@" horiz-adv-x="1695" d="M123 750q0 158 55 300t150.5 245.5t231.5 164t290 60.5q152 0 288 -59.5t230.5 -158t149.5 -227t55 -264.5q0 -120 -51 -225.5t-136 -168.5t-182 -63q-41 0 -83 27t-62 82q-97 -109 -244 -109q-154 0 -247 117t-93 291q0 112 40.5 204t122 148.5t189.5 56.5 q134 0 224 -90v74h133v-559q0 -113 63 -113q59 0 117.5 99t58.5 229q0 106 -43.5 210t-118 184.5t-182.5 130.5t-229 50q-123 0 -231.5 -51t-184 -137t-119 -203t-43.5 -245q0 -172 73.5 -317.5t207 -232.5t297.5 -87q77 0 166 22.5t145 54.5l78 -100q-102 -56 -190 -83 t-199 -27q-154 0 -290 61.5t-231.5 165t-150.5 245.5t-55 298zM614 762q0 -116 57.5 -195.5t157.5 -79.5q108 0 163 78t55 197q0 116 -59 196t-159 80t-157.5 -80t-57.5 -196z" />
<glyph unicode="A" horiz-adv-x="1323" d="M41 0l520 1499h199l522 -1499h-190l-152 459h-559l-150 -459h-190zM430 604h463l-231 705z" />
<glyph unicode="B" horiz-adv-x="1261" d="M193 0v1499h454q240 0 359.5 -102t119.5 -287q0 -111 -66 -192t-163 -111q140 -47 215.5 -137.5t75.5 -241.5q0 -189 -139.5 -308.5t-382.5 -119.5h-473zM375 150h299q148 0 240 76t92 202q0 123 -98.5 201t-231.5 78h-301v-557zM375 858h252q154 0 236.5 68t82.5 184 q0 111 -77 175.5t-222 64.5h-272v-492z" />
<glyph unicode="C" horiz-adv-x="1329" d="M102 748q0 215 84.5 390t245 278.5t369.5 103.5q157 0 286 -62t201 -147l-151 -76q-55 47 -143 85t-193 38q-152 0 -271 -83t-182 -221.5t-63 -305.5t63 -305t181.5 -220t271.5 -82q106 0 204 39.5t150 83.5l152 -76q-69 -83 -210 -145.5t-300 -62.5q-209 0 -368.5 102 t-243 276t-83.5 390z" />
<glyph unicode="D" horiz-adv-x="1517" d="M193 0v1499h432q215 0 395 -93.5t287.5 -266t107.5 -389.5q0 -153 -61 -291.5t-166 -239t-252 -160t-311 -59.5h-432zM375 150h248q85 0 170.5 23t165 72t140.5 118t97.5 169t36.5 218q0 114 -36.5 213.5t-98 169t-140.5 119.5t-164.5 74t-170.5 24h-248v-1200z" />
<glyph unicode="E" horiz-adv-x="1181" d="M193 0v1499h894v-149h-712v-512h567v-150h-567v-538h727v-150h-909z" />
<glyph unicode="F" horiz-adv-x="1155" d="M193 0v1499h874v-149h-692v-525h573v-149h-573v-676h-182z" />
<glyph unicode="G" horiz-adv-x="1458" d="M102 752q0 160 52.5 301t146 244t228.5 163t292 60q159 0 298.5 -63t209.5 -146l-151 -76q-48 41 -155.5 82t-201.5 41q-122 0 -224 -48.5t-169.5 -131.5t-105 -194t-37.5 -236q0 -126 33.5 -237t96.5 -195.5t161.5 -133.5t220.5 -49q108 0 210 37.5t169 89.5v346h-299 v150h471v-756h-166v113q-68 -54 -173.5 -93.5t-232.5 -39.5q-208 0 -363 104.5t-233 278t-78 389.5z" />
<glyph unicode="H" horiz-adv-x="1452" d="M193 0v1499h182v-661h702v661h183v-1499h-183v688h-702v-688h-182z" />
<glyph unicode="I" horiz-adv-x="591" d="M205 0v1499h182v-1499h-182z" />
<glyph unicode="J" horiz-adv-x="907" d="M41 322v71h170v-71q0 -72 46 -122t116 -50q69 0 114 50t45 122v1177h183v-1177q0 -142 -96 -242t-236 -100q-152 0 -247 99t-95 243z" />
<glyph unicode="K" horiz-adv-x="1294" d="M193 0v1499h182v-840l717 840h237l-541 -598l568 -901h-230l-462 762l-289 -320v-442h-182z" />
<glyph unicode="L" horiz-adv-x="1075" d="M193 0v1499h182v-1349h672v-150h-854z" />
<glyph unicode="M" horiz-adv-x="1810" d="M193 0v1499h210l502 -1120l502 1120h211v-1499h-170v1194l-465 -1044h-156l-465 1044v-1194h-169z" />
<glyph unicode="N" horiz-adv-x="1509" d="M193 0v1499h169l785 -1188v1188h170v-1499h-170l-785 1186v-1186h-169z" />
<glyph unicode="O" horiz-adv-x="1644" d="M102 748q0 160 52.5 302t146 245.5t228.5 164t292 60.5q158 0 293.5 -60.5t229 -164t146 -245.5t52.5 -302q0 -159 -52.5 -300t-146 -244.5t-229 -163.5t-293.5 -60q-209 0 -374.5 102.5t-255 277.5t-89.5 388zM285 748q0 -125 37.5 -237.5t105 -197.5t169.5 -134.5 t224 -49.5q162 0 286.5 85.5t188.5 225.5t64 308t-64 308.5t-188.5 227t-286.5 86.5q-122 0 -224 -50t-169.5 -135.5t-105 -198.5t-37.5 -238z" />
<glyph unicode="P" horiz-adv-x="1243" d="M193 0v1499h444q144 0 249 -31.5t166 -91t89 -135.5t28 -172q0 -217 -141.5 -341t-421.5 -124h-231v-604h-182zM375 756h231q194 0 287.5 82.5t93.5 214.5q0 63 -19 114.5t-61 93.5t-118.5 65.5t-182.5 23.5h-231v-594z" />
<glyph unicode="Q" horiz-adv-x="1644" d="M102 748q0 160 52.5 302t146 245.5t228.5 164t292 60.5q158 0 293.5 -60.5t229 -164t146 -245.5t52.5 -302q0 -168 -56.5 -314.5t-160.5 -251.5l150 -147l-119 -117l-162 162q-168 -100 -373 -100q-209 0 -374.5 102.5t-255 277.5t-89.5 388zM285 748q0 -125 37.5 -237.5 t105 -197.5t169.5 -134.5t224 -49.5q141 0 258 68l-182 182l117 115l192 -193q74 87 114 202.5t40 244.5q0 168 -64 308.5t-188.5 227t-286.5 86.5q-122 0 -224 -50t-169.5 -135.5t-105 -198.5t-37.5 -238z" />
<glyph unicode="R" horiz-adv-x="1329" d="M193 0v1499h475q255 0 393.5 -119t138.5 -305q0 -293 -321 -411l405 -664h-211l-379 631h-319v-631h-182zM375 780h262q194 0 287.5 82.5t93.5 214.5q0 126 -94 199.5t-287 73.5h-262v-570z" />
<glyph unicode="S" horiz-adv-x="1148" d="M61 209l158 102q59 -74 162 -127t223 -53t210.5 77t90.5 193q0 57 -27 102.5t-73 77t-105.5 58.5t-125 51t-131 49.5t-125 60t-105.5 77t-73 105t-27 140.5q0 177 123 287.5t337 110.5q129 0 256.5 -54t202.5 -137l-162 -92q-48 46 -125.5 83.5t-179.5 37.5t-186 -55 t-84 -148q0 -58 27 -103.5t73 -77t105.5 -58t125 -50.5t131 -50t125 -61t105.5 -78.5t73 -108.5t27 -146q0 -129 -68.5 -231.5t-182 -156.5t-248.5 -54q-166 0 -300.5 60.5t-226.5 168.5z" />
<glyph unicode="T" horiz-adv-x="1198" d="M29 1350v149h1128v-149h-467v-1350h-182v1350h-479z" />
<glyph unicode="U" horiz-adv-x="1437" d="M184 471v1028h183v-1024q0 -166 96.5 -256t255.5 -90t255.5 90t96.5 256v1024h182v-1028q0 -146 -72 -259t-193.5 -172.5t-270.5 -59.5q-147 0 -267.5 59.5t-193 172.5t-72.5 259z" />
<glyph unicode="V" horiz-adv-x="1323" d="M41 1499h201l428 -1290l420 1290h192l-514 -1499h-207z" />
<glyph unicode="W" horiz-adv-x="1986" d="M41 1499h201l428 -1290l233 717l-198 573h180l112 -358l111 358h174l-192 -559l243 -731l420 1290h193l-514 -1499h-203l-238 717l-233 -717h-197z" />
<glyph unicode="X" horiz-adv-x="1224" d="M20 1499h199l402 -596l368 596h199l-467 -747l508 -752h-197l-411 608l-388 -608h-196l481 760z" />
<glyph unicode="Y" horiz-adv-x="1239" d="M29 1499h211l385 -686l381 686h204l-501 -860v-639h-177v639z" />
<glyph unicode="Z" horiz-adv-x="1234" d="M45 0l840 1350h-785v149h1071l-829 -1349h842v-150h-1139z" />
<glyph unicode="[" horiz-adv-x="681" d="M213 -471v2068h449v-131h-279v-1806h279v-131h-449z" />
<glyph unicode="\" horiz-adv-x="1024" d="M0 1597h170l854 -1699h-170z" />
<glyph unicode="]" horiz-adv-x="681" d="M23 -340h278v1806h-278v131h448v-2068h-448v131z" />
<glyph unicode="^" horiz-adv-x="737" d="M82 1006l151 493h238l152 -493h-146l-125 389l-125 -389h-145z" />
<glyph unicode="_" horiz-adv-x="1118" d="M133 -147h852v-152h-852v152z" />
<glyph unicode="`" horiz-adv-x="411" d="M45 1577h188l134 -289h-166z" />
<glyph unicode="a" horiz-adv-x="1286" d="M111 563q0 163 58 294.5t173 211.5t268 80q120 0 196 -44.5t140 -135.5l-2 159h172v-1128h-172v172q-61 -97 -146 -144.5t-208 -47.5q-144 0 -254 79t-167.5 210.5t-57.5 293.5zM281 563q0 -115 36.5 -209t113 -153.5t181.5 -59.5q112 0 190 59.5t113 152.5t35 210 q0 115 -38 210t-116 154.5t-184 59.5q-104 0 -180.5 -59.5t-113.5 -154.5t-37 -210z" />
<glyph unicode="b" horiz-adv-x="1284" d="M170 0v1597h170v-649q120 201 356 201q145 0 255.5 -80.5t166.5 -213t56 -294.5t-59 -293t-174 -209.5t-265 -78.5q-119 0 -200 52.5t-142 157.5v-190h-164zM336 561q0 -87 20 -161t60 -133t106 -92.5t152 -33.5q104 0 180 58.5t113 152.5t37 209q0 85 -22 161.5 t-62.5 135.5t-104 94t-141.5 35q-106 0 -184.5 -60.5t-116 -155.5t-37.5 -210z" />
<glyph unicode="c" horiz-adv-x="1067" d="M111 565q0 162 60 293.5t178 211t274 79.5q131 0 238.5 -53t176.5 -135l-151 -76q-35 30 -63.5 48.5t-82.5 36t-118 17.5q-108 0 -187.5 -59.5t-117 -153.5t-37.5 -209t37.5 -209.5t117 -154.5t187.5 -60q92 0 155 28.5t117 74.5l152 -76q-68 -81 -180 -134.5t-244 -53.5 q-156 0 -274 79.5t-178 211.5t-60 294z" />
<glyph unicode="d" horiz-adv-x="1286" d="M111 563q0 163 58 294.5t173 211.5t268 80q109 0 195 -48.5t141 -131.5v628h170v-1597h-164v193q-123 -213 -362 -213q-144 0 -254 79t-167.5 210.5t-57.5 293.5zM281 563q0 -115 36.5 -209t113 -153.5t181.5 -59.5q112 0 190 59.5t113 152.5t35 210q0 115 -38 210 t-116 154.5t-184 59.5q-104 0 -180.5 -59.5t-113.5 -154.5t-37 -210z" />
<glyph unicode="e" horiz-adv-x="1171" d="M111 565q0 164 59 296.5t170 210t254 77.5q117 0 208.5 -45.5t148 -126t85.5 -185t29 -227.5v-39h-784q11 -175 95.5 -280t246.5 -105q169 0 290 103l152 -76q-67 -79 -187.5 -133.5t-254.5 -54.5q-126 0 -224 43.5t-160.5 122t-95 184.5t-32.5 235zM291 666h596 q-24 152 -92 236.5t-205 84.5q-124 0 -199 -89.5t-100 -231.5z" />
<glyph unicode="f" horiz-adv-x="622" d="M35 981v147h172v168q0 162 74.5 242t216.5 80q149 0 256 -86l-88 -113q-29 21 -75.5 36t-92.5 15q-67 0 -94 -38t-27 -93v-211h260v-147h-260v-981h-170v981h-172z" />
<glyph unicode="g" horiz-adv-x="1310" d="M111 561q0 121 37.5 228t105.5 187t170 126.5t223 46.5q102 0 181.5 -43.5t148.5 -130.5v153h164v-1034q0 -120 -37.5 -226.5t-105 -185t-167 -124t-217.5 -45.5q-132 0 -244 53.5t-180 134.5l152 76q54 -46 117 -74.5t155 -28.5q109 0 191.5 59.5t124 155t41.5 209.5v92 q-124 -208 -365 -208q-142 0 -256 77.5t-176.5 209.5t-62.5 292zM283 561q0 -175 95 -297.5t251 -122.5q86 0 153 33.5t108 92.5t62 133.5t21 160.5q0 115 -39 210.5t-118.5 155.5t-186.5 60q-103 0 -183 -60t-121.5 -156t-41.5 -210z" />
<glyph unicode="h" horiz-adv-x="1222" d="M170 0v1597h170v-677q63 97 170.5 163t212.5 66q152 0 241 -89t89 -249v-811h-172v793q0 96 -48.5 148t-136.5 52t-181 -62t-175 -175v-756h-170z" />
<glyph unicode="i" horiz-adv-x="538" d="M160 1411q0 45 32 77t76 32q46 0 78.5 -31.5t32.5 -77.5t-32.5 -78.5t-78.5 -32.5q-44 0 -76 32.5t-32 78.5zM184 0v1128h170v-1128h-170z" />
<glyph unicode="j" horiz-adv-x="512" d="M25 -383q22 18 43 40.5t46 58.5t40.5 85.5t15.5 104.5v1222h170v-1204q0 -78 -21 -148t-56 -121t-70.5 -86.5t-73.5 -60.5zM145 1411q0 45 32 77t77 32q46 0 78.5 -31.5t32.5 -77.5t-32.5 -78.5t-78.5 -32.5q-44 0 -76.5 32.5t-32.5 78.5z" />
<glyph unicode="k" horiz-adv-x="1087" d="M170 0v1597h170v-1073l502 604h207l-416 -462l502 -666h-203l-408 545l-184 -207v-338h-170z" />
<glyph unicode="l" horiz-adv-x="530" d="M176 0v1597h170v-1597h-170z" />
<glyph unicode="m" horiz-adv-x="1835" d="M170 0v1128h160v-202q77 89 152.5 140.5t129.5 67t113 15.5q115 0 178.5 -49.5t97.5 -165.5q188 215 385 215q125 0 202 -85.5t77 -211.5v-852h-170v834q0 67 -35.5 113t-99.5 46q-26 0 -52.5 -7.5t-69 -29.5t-102.5 -74.5t-132 -131.5v-750h-170v834q0 68 -36 113.5 t-102 45.5q-24 0 -39 -1.5t-51 -14t-69.5 -36t-86 -72.5t-110.5 -119v-750h-170z" />
<glyph unicode="n" horiz-adv-x="1222" d="M170 0v1128h162v-208q63 96 174.5 162.5t216.5 66.5q152 0 241 -89t89 -249v-811h-172v793q0 96 -48.5 148t-136.5 52t-181 -62t-175 -175v-756h-170z" />
<glyph unicode="o" horiz-adv-x="1232" d="M111 565q0 163 58 294t174.5 210.5t272.5 79.5q118 0 214.5 -46t159.5 -125.5t97.5 -185.5t34.5 -227t-34.5 -227t-97.5 -186t-159.5 -126t-214.5 -46q-156 0 -272.5 79.5t-174.5 211t-58 294.5zM281 565q0 -86 21 -161.5t61.5 -134.5t105.5 -93.5t147 -34.5 q108 0 186 60t114 154t36 210t-36 209.5t-114 153t-186 59.5q-82 0 -147 -34t-105.5 -93t-61.5 -134t-21 -161z" />
<glyph unicode="p" horiz-adv-x="1306" d="M170 -471v1599h164v-198q127 219 368 219q147 0 260.5 -79t173.5 -211.5t60 -293.5q0 -160 -62.5 -293.5t-176.5 -212.5t-255 -79q-240 0 -362 210v-661h-170zM336 565q0 -86 21 -161.5t62 -134.5t108 -93.5t153 -34.5q104 0 184 59.5t121 155t41 209.5 q0 113 -41.5 208.5t-121.5 154.5t-183 59q-159 0 -251.5 -122.5t-92.5 -299.5z" />
<glyph unicode="q" horiz-adv-x="1310" d="M111 561q0 121 37.5 228t105.5 187t170 126.5t223 46.5q79 0 142 -25t102.5 -59.5t87.5 -93.5v157h162v-1599h-170v661q-124 -208 -365 -208q-142 0 -256 77.5t-176.5 209.5t-62.5 292zM283 561q0 -175 95 -297.5t251 -122.5q86 0 153 33.5t108 92.5t62 133.5t21 160.5 q0 115 -39 210.5t-118.5 155.5t-186.5 60q-103 0 -183 -60t-121.5 -156t-41.5 -210z" />
<glyph unicode="r" horiz-adv-x="796" d="M170 0v1128h162v-247q62 121 169.5 194.5t203.5 73.5q54 0 75 -8v-176q-34 6 -75 6q-87 0 -190 -68.5t-175 -195.5v-707h-170z" />
<glyph unicode="s" horiz-adv-x="1062" d="M80 127l143 94q62 -38 149 -59t175 -21q59 0 114 17t96.5 58t41.5 99q0 46 -23.5 80t-63 54.5t-91 35.5t-108 28.5t-113 28t-108 38.5t-91 56t-63 84t-23.5 120q0 82 35 143.5t95.5 96.5t133.5 52t158 17q110 0 222.5 -38t190.5 -105l-137 -93q-164 74 -293 74 q-36 0 -73.5 -7t-75.5 -21.5t-62 -42t-24 -64.5q0 -52 37.5 -88t98 -56.5t133.5 -38.5t146 -41.5t133.5 -56t98 -91t37.5 -138.5q0 -174 -122.5 -268t-320.5 -94q-135 0 -272 52.5t-174 94.5z" />
<glyph unicode="t" horiz-adv-x="665" d="M47 981v147h191v269h172v-269h217v-147h-217v-981h-172v981h-191z" />
<glyph unicode="u" horiz-adv-x="1193" d="M170 317v811h172v-792q0 -97 48 -149t136 -52q163 0 336 238v755h170v-1128h-162v209q-64 -98 -165.5 -163.5t-204.5 -65.5q-152 0 -241 89t-89 248z" />
<glyph unicode="v" horiz-adv-x="1103" d="M53 1128h187l317 -940l315 940h179l-402 -1128h-194z" />
<glyph unicode="w" horiz-adv-x="1667" d="M57 1128h185l299 -944l219 635l-107 309h185l297 -952l299 952h176l-371 -1128h-215l-193 602l-202 -602h-197z" />
<glyph unicode="x" horiz-adv-x="1050" d="M16 1128h203l309 -423l285 423h193l-377 -553l428 -575h-207l-322 436l-292 -436h-191l385 565z" />
<glyph unicode="y" horiz-adv-x="1105" d="M55 1128h187l325 -835l307 835h181l-480 -1255q-31 -79 -72 -144.5t-84 -108t-81.5 -69.5t-75.5 -43l-78 136q3 2 21.5 13.5t27 17.5t28.5 20.5t32 26.5t30.5 32t32 40t28.5 47t26 57l69 180z" />
<glyph unicode="z" horiz-adv-x="1017" d="M45 0l635 981h-600v147h887l-637 -981h639v-147h-924z" />
<glyph unicode="{" horiz-adv-x="749" d="M150 528v164h38q70 0 107 75t37 202v256q0 179 81.5 285t233.5 106h47v-141h-45q-74 0 -111.5 -64.5t-37.5 -208.5v-244q0 -120 -51 -215.5t-119 -134.5q68 -39 119 -132t51 -212v-321q0 -144 37.5 -208.5t111.5 -64.5h45v-141h-47q-152 0 -233.5 106t-81.5 285v334 q0 126 -37 200t-107 74h-38z" />
<glyph unicode="|" horiz-adv-x="825" d="M328 -471v2068h170v-2068h-170z" />
<glyph unicode="}" horiz-adv-x="749" d="M55 -330h45q74 0 112 64.5t38 208.5v321q0 119 51 212t119 132q-68 39 -119 134.5t-51 215.5v244q0 144 -38 208.5t-112 64.5h-45v141h47q152 0 234 -106t82 -285v-256q0 -127 36.5 -202t106.5 -75h39v-164h-39q-70 0 -106.5 -73.5t-36.5 -200.5v-334q0 -179 -82 -285 t-234 -106h-47v141z" />
<glyph unicode="~" horiz-adv-x="1363" d="M256 494q2 94 63 168.5t154 74.5q60 0 232 -55t200 -55q74 0 74 86h129q-2 -95 -60.5 -168.5t-150.5 -73.5q-53 0 -147 27.5t-175 55.5t-104 28q-42 0 -59 -23t-19 -65h-137z" />
<glyph unicode="&#xa1;" horiz-adv-x="581" d="M158 1386q0 56 39 95t94 39q57 0 96 -39t39 -95q0 -57 -39 -96t-96 -39q-56 0 -94.5 39t-38.5 96zM195 0l51 987h90l51 -987h-192z" />
<glyph unicode="&#xa2;" d="M166 770q0 225 126 389t333 191v170h149v-172q106 -13 193.5 -63t146.5 -120l-151 -75q-96 79 -189 96v-834q103 16 197 97l151 -76q-60 -70 -150 -120.5t-198 -64.5v-208h-149v208q-138 18 -243 100.5t-160.5 208t-55.5 273.5zM336 770q0 -155 78 -271t211 -145v830 q-133 -29 -211 -145t-78 -269z" />
<glyph unicode="&#xa3;" d="M201 0v150h192v538h-190v150h190v325q0 357 342 357q182 0 279 -88l-88 -107q-86 53 -191 53q-172 0 -172 -209v-331h342v-150h-342v-538h545v-150h-907z" />
<glyph unicode="&#xa4;" horiz-adv-x="1193" d="M113 317l159 162q-102 120 -102 277q0 148 92 264l-149 151l57 58l149 -150q115 103 279 103q161 0 276 -103l150 150l57 -58l-149 -151q92 -116 92 -264q0 -157 -102 -277l159 -162l-57 -57l-162 162q-119 -92 -264 -92q-147 0 -266 92l-162 -162zM285 756 q0 -130 92.5 -225t220.5 -95t220.5 95t92.5 225q0 129 -92 223t-221 94t-221 -94t-92 -223z" />
<glyph unicode="&#xa5;" d="M43 1499h205l377 -600l372 600h203l-418 -661h254v-150h-319v-196h319v-152h-319v-340h-170v340h-340v152h340v196h-340v150h268z" />
<glyph unicode="&#xa6;" horiz-adv-x="825" d="M328 342h170v-813h-170v813zM328 784v813h170v-813h-170z" />
<glyph unicode="&#xa7;" d="M115 612q0 75 41 138.5t101.5 102.5t135.5 62q-217 102 -217 295q0 82 35 143.5t95.5 97t133.5 52.5t158 17q110 0 222.5 -38.5t191.5 -105.5l-138 -92q-164 74 -292 74q-36 0 -74 -7t-76 -21.5t-62 -42t-24 -64.5q0 -60 43.5 -105t113 -73.5t153 -54t167.5 -54.5 t153.5 -66t113 -98t43.5 -141q0 -113 -67.5 -197.5t-174.5 -128.5q172 -97 172 -272q0 -174 -122 -268.5t-320 -94.5q-135 0 -272.5 52.5t-174.5 95.5l143 94q62 -38 149 -59t175 -21q59 0 114 17t96.5 58t41.5 99q0 70 -43 120t-111.5 78.5t-151.5 52t-166 49.5t-151.5 61 t-111.5 97t-43 148zM285 625q0 -29 12.5 -53t39 -43t55.5 -33.5t73 -28.5t81 -24.5t90.5 -25.5t90.5 -26q93 18 160 68.5t67 134.5q0 29 -11 54t-26 43.5t-45.5 36t-54 28.5t-68 24.5t-70.5 20.5t-77 20q-38 -1 -87 -12t-103 -32t-90.5 -61t-36.5 -91z" />
<glyph unicode="&#xa8;" horiz-adv-x="628" d="M41 1411q0 45 32 77t77 32q46 0 78 -31.5t32 -77.5t-32 -78.5t-78 -32.5q-44 0 -76.5 32.5t-32.5 78.5zM369 1411q0 45 31.5 77t76.5 32q46 0 78.5 -31.5t32.5 -77.5t-32.5 -78.5t-78.5 -32.5q-44 0 -76 32.5t-32 78.5z" />
<glyph unicode="&#xa9;" horiz-adv-x="1536" d="M170 924q0 122 47.5 232t127.5 190t190.5 127t232.5 47t232.5 -47t190.5 -127t127.5 -190t47.5 -232t-47.5 -233t-127.5 -191t-190.5 -127t-232.5 -47t-232.5 47t-190.5 127t-127.5 191t-47.5 233zM299 924q0 -195 137 -332t332 -137q127 0 235 62.5t171 170.5t63 236 q0 127 -63 235t-171 171t-235 63q-128 0 -236 -63t-170.5 -171t-62.5 -235zM512 924q0 106 75 181t181 75q107 0 180 -76l-86 -86q-35 35 -90 35q-54 0 -92.5 -37.5t-38.5 -91.5q0 -55 38.5 -93t92.5 -38t88 34l88 -86q-73 -73 -180 -73q-106 0 -181 75t-75 181z" />
<glyph unicode="&#xaa;" horiz-adv-x="862" d="M123 1163q0 150 83 249t226 99q112 0 182 -77v65h131v-676h-131v74q-84 -84 -194 -84q-135 0 -216 99.5t-81 250.5zM133 559v129h612v-129h-612zM258 1163q0 -101 45.5 -169t128.5 -68q89 0 134.5 67.5t45.5 169.5q0 99 -48 167.5t-132 68.5q-81 0 -127.5 -68.5 t-46.5 -167.5z" />
<glyph unicode="&#xab;" horiz-adv-x="1316" d="M123 586l364 461h160l-289 -461l289 -463h-160zM635 586l364 461h160l-289 -461l289 -463h-160z" />
<glyph unicode="&#xac;" d="M197 530v156h852v-524h-156v368h-696z" />
<glyph unicode="&#xad;" horiz-adv-x="0" />
<glyph unicode="&#xae;" horiz-adv-x="1536" d="M170 924q0 122 47.5 232t127.5 190t190.5 127t232.5 47t232.5 -47t190.5 -127t127.5 -190t47.5 -232t-47.5 -233t-127.5 -191t-190.5 -127t-232.5 -47t-232.5 47t-190.5 127t-127.5 191t-47.5 233zM299 924q0 -195 137 -332t332 -137q127 0 235 62.5t171 170.5t63 236 q0 127 -63 235t-171 171t-235 63q-128 0 -236 -63t-170.5 -171t-62.5 -235zM551 694v459h268q90 0 135 -35.5t45 -83.5q0 -43 -29.5 -82t-95.5 -47l177 -211h-150l-153 187h-76v-187h-121zM672 973h127q78 0 78 51q0 19 -22 30t-56 11h-127v-92z" />
<glyph unicode="&#xaf;" horiz-adv-x="757" d="M82 1346v153h594v-153h-594z" />
<glyph unicode="&#xb0;" horiz-adv-x="1058" d="M102 1094q0 177 125.5 301.5t302.5 124.5t301.5 -124.5t124.5 -301.5t-124.5 -301.5t-301.5 -124.5t-302.5 124.5t-125.5 301.5zM266 1094q0 -110 78 -192.5t186 -82.5t186.5 82.5t78.5 192.5q0 109 -78.5 190.5t-186.5 81.5t-186 -81t-78 -191z" />
<glyph unicode="&#xb1;" d="M197 0v156h852v-156h-852zM197 592v156h348v368h155v-368h349v-156h-349v-369h-155v369h-348z" />
<glyph unicode="&#xb2;" horiz-adv-x="819" d="M-20 594l446 463q96 99 96 180q0 68 -45 101.5t-110 33.5q-60 0 -132.5 -39.5t-109.5 -81.5l-109 105q50 57 150 106t213 49q153 0 241.5 -67t88.5 -195q0 -73 -38 -136.5t-112 -137.5l-246 -248h428v-133h-761z" />
<glyph unicode="&#xb3;" horiz-adv-x="819" d="M0 764l174 49q19 -34 72.5 -70t111.5 -36q79 0 137 54t58 132q0 93 -60.5 135.5t-160.5 42.5h-94l-23 78l209 229h-385v121h694l-284 -311q126 -15 204 -94t78 -197q0 -95 -53.5 -168t-137.5 -110t-182 -37q-235 0 -358 182z" />
<glyph unicode="&#xb4;" horiz-adv-x="411" d="M45 1288l133 289h189l-156 -289h-166z" />
<glyph unicode="&#xb6;" d="M51 1075q0 175 124.5 299.5t301.5 124.5h731v-127h-170v-1843h-151v1843h-258v-1843h-152v1120q-177 0 -301.5 124.5t-124.5 301.5z" />
<glyph unicode="&#xb7;" horiz-adv-x="432" d="M82 770q0 57 38.5 96t94.5 39q57 0 96 -39t39 -96q0 -56 -39 -94.5t-96 -38.5q-55 0 -94 38.5t-39 94.5z" />
<glyph unicode="&#xb8;" horiz-adv-x="606" d="M82 -449l55 109q53 -47 137 -47q107 0 107 88q0 43 -37.5 61.5t-126.5 18.5h-94v110h166q114 0 174.5 -51t60.5 -127q0 -106 -71 -155.5t-179 -49.5q-91 0 -192 43z" />
<glyph unicode="&#xb9;" horiz-adv-x="819" d="M125 1192v119h35q93 0 149.5 38.5t96.5 149.5h124v-905h-170v598h-235z" />
<glyph unicode="&#xba;" horiz-adv-x="872" d="M119 1163q0 149 87 248.5t234 99.5q143 0 228.5 -99.5t85.5 -248.5q0 -150 -85.5 -250t-228.5 -100q-147 0 -234 99.5t-87 250.5zM133 559v129h602v-129h-602zM264 1163q0 -102 44.5 -169.5t131.5 -67.5q82 0 127 68.5t45 168.5q0 101 -45 168.5t-127 67.5 q-87 0 -131.5 -66.5t-44.5 -169.5z" />
<glyph unicode="&#xbb;" horiz-adv-x="1316" d="M158 123l288 463l-288 461h159l365 -461l-365 -463h-159zM670 123l288 463l-288 461h159l365 -461l-365 -463h-159z" />
<glyph unicode="&#xbc;" horiz-adv-x="1957" d="M125 1192v119h35q93 0 149.5 38.5t96.5 149.5h124v-905h-170v598h-235zM469 0l811 1499h170l-811 -1499h-170zM1171 199v108l312 598h184l-305 -586h291v373h180v-692h-180v199h-482z" />
<glyph unicode="&#xbd;" horiz-adv-x="1957" d="M125 1192v119h35q93 0 149.5 38.5t96.5 149.5h124v-905h-170v598h-235zM428 0l811 1499h170l-811 -1499h-170zM1114 0l447 463q96 99 96 180q0 68 -45.5 101.5t-110.5 33.5q-60 0 -132 -39.5t-109 -81.5l-109 105q50 57 149.5 106.5t212.5 49.5q153 0 241.5 -67.5 t88.5 -195.5q0 -74 -38 -137.5t-111 -136.5l-246 -248h428v-133h-762z" />
<glyph unicode="&#xbe;" horiz-adv-x="1957" d="M20 764l175 49q19 -34 72.5 -70t111.5 -36q79 0 136.5 54t57.5 132q0 93 -60.5 135.5t-160.5 42.5h-94l-22 78l208 229h-385v121h695l-285 -311q126 -15 204.5 -94t78.5 -197q0 -95 -53.5 -168t-137.5 -110t-182 -37q-236 0 -359 182zM510 0l811 1499h170l-811 -1499 h-170zM1171 199v108l312 598h184l-305 -586h291v373h180v-692h-180v199h-482z" />
<glyph unicode="&#xbf;" horiz-adv-x="1024" d="M131 399q0 74 28.5 142t72.5 125t91 114t91 132.5t65 156.5h158q-21 -91 -56 -168t-71 -125.5t-74.5 -97t-67.5 -86t-48 -89.5t-19 -112q0 -120 83.5 -185t207.5 -65q88 0 179.5 40t143.5 89l89 -125q-59 -59 -177 -112t-227 -53q-135 0 -239 45t-167 141.5t-63 232.5z M424 1386q0 56 39 95t94 39q56 0 95.5 -39.5t39.5 -94.5q0 -57 -39.5 -96t-95.5 -39t-94.5 39t-38.5 96z" />
<glyph unicode="&#xc0;" horiz-adv-x="1323" d="M41 0l520 1499h199l522 -1499h-190l-152 459h-559l-150 -459h-190zM383 1948h188l134 -289h-166zM430 604h463l-231 705z" />
<glyph unicode="&#xc1;" horiz-adv-x="1323" d="M41 0l520 1499h199l522 -1499h-190l-152 459h-559l-150 -459h-190zM430 604h463l-231 705zM573 1659l134 289h188l-156 -289h-166z" />
<glyph unicode="&#xc2;" horiz-adv-x="1323" d="M41 0l520 1499h199l522 -1499h-190l-152 459h-559l-150 -459h-190zM395 1659l152 289h229l152 -289h-142l-124 184l-125 -184h-142zM430 604h463l-231 705z" />
<glyph unicode="&#xc3;" horiz-adv-x="1323" d="M41 0l520 1499h199l522 -1499h-190l-152 459h-559l-150 -459h-190zM324 1677q19 97 72.5 155t144.5 58q47 0 97 -21.5t91.5 -43t67.5 -21.5q37 0 57 21t37 65h108q-42 -215 -211 -215q-53 0 -102.5 21.5t-86.5 43t-60 21.5q-60 0 -99 -84h-116zM430 604h463l-231 705z " />
<glyph unicode="&#xc4;" horiz-adv-x="1323" d="M41 0l520 1499h199l522 -1499h-190l-152 459h-559l-150 -459h-190zM387 1782q0 45 32 76.5t77 31.5q46 0 78 -31t32 -77t-32 -78.5t-78 -32.5q-44 0 -76.5 32.5t-32.5 78.5zM430 604h463l-231 705zM715 1782q0 45 31.5 76.5t76.5 31.5q46 0 78.5 -31.5t32.5 -76.5 q0 -46 -32.5 -78.5t-78.5 -32.5q-44 0 -76 32.5t-32 78.5z" />
<glyph unicode="&#xc5;" horiz-adv-x="1323" d="M41 0l483 1382q-51 33 -80.5 87.5t-29.5 119.5q0 103 72.5 175.5t175.5 72.5t175 -72.5t72 -175.5q0 -63 -29 -117t-79 -88l481 -1384h-190l-152 459h-559l-150 -459h-190zM430 604h463l-231 705zM549 1589q0 -46 33.5 -79t79.5 -33q47 0 80.5 33t33.5 79q0 47 -33.5 80 t-80.5 33q-46 0 -79.5 -33t-33.5 -80z" />
<glyph unicode="&#xc6;" horiz-adv-x="1943" d="M41 0l610 1499h1161v-149h-684v-512h574v-150h-574v-538h736v-150h-918v459h-534l-181 -459h-190zM469 604h477v746h-184z" />
<glyph unicode="&#xc7;" horiz-adv-x="1329" d="M102 748q0 215 84.5 390t245 278.5t369.5 103.5q157 0 286 -62t201 -147l-151 -76q-55 47 -143 85t-193 38q-152 0 -271 -83t-182 -221.5t-63 -305.5t63 -305t181.5 -220t271.5 -82q106 0 204 39.5t150 83.5l152 -76q-69 -83 -210 -145.5t-300 -62.5q-209 0 -368.5 102 t-243 276t-83.5 390zM584 -449l55 109q53 -47 137 -47q107 0 107 88q0 43 -37.5 61.5t-126.5 18.5h-94v110h166q114 0 174.5 -51t60.5 -127q0 -106 -71 -155.5t-179 -49.5q-91 0 -192 43z" />
<glyph unicode="&#xc8;" horiz-adv-x="1181" d="M193 0v1499h894v-149h-712v-512h567v-150h-567v-538h727v-150h-909zM430 1948h188l134 -289h-166z" />
<glyph unicode="&#xc9;" horiz-adv-x="1181" d="M193 0v1499h894v-149h-712v-512h567v-150h-567v-538h727v-150h-909zM543 1659l133 289h188l-155 -289h-166z" />
<glyph unicode="&#xca;" horiz-adv-x="1181" d="M193 0v1499h894v-149h-712v-512h567v-150h-567v-538h727v-150h-909zM367 1659l151 289h230l151 -289h-141l-125 184l-125 -184h-141z" />
<glyph unicode="&#xcb;" horiz-adv-x="1181" d="M193 0v1499h894v-149h-712v-512h567v-150h-567v-538h727v-150h-909zM367 1782q0 45 31.5 76.5t76.5 31.5q46 0 78.5 -31.5t32.5 -76.5q0 -46 -32.5 -78.5t-78.5 -32.5q-44 0 -76 32.5t-32 78.5zM694 1782q0 45 32 76.5t77 31.5q46 0 78 -31t32 -77t-32 -78.5t-78 -32.5 q-44 0 -76.5 32.5t-32.5 78.5z" />
<glyph unicode="&#xcc;" horiz-adv-x="591" d="M135 1948h189l133 -289h-166zM205 0v1499h182v-1499h-182z" />
<glyph unicode="&#xcd;" horiz-adv-x="591" d="M135 1659l133 289h189l-156 -289h-166zM205 0v1499h182v-1499h-182z" />
<glyph unicode="&#xce;" horiz-adv-x="591" d="M31 1659l151 289h230l151 -289h-141l-125 184l-125 -184h-141zM205 0v1499h182v-1499h-182z" />
<glyph unicode="&#xcf;" horiz-adv-x="591" d="M23 1782q0 45 31.5 76.5t76.5 31.5q46 0 78.5 -31.5t32.5 -76.5q0 -46 -32.5 -78.5t-78.5 -32.5q-44 0 -76 32.5t-32 78.5zM205 0v1499h182v-1499h-182zM350 1782q0 45 32 76.5t77 31.5q46 0 78 -31t32 -77t-32 -78.5t-78 -32.5q-44 0 -76.5 32.5t-32.5 78.5z" />
<glyph unicode="&#xd0;" horiz-adv-x="1517" d="M41 688v150h152v661h432q215 0 395 -93.5t287.5 -266t107.5 -389.5q0 -153 -61 -291.5t-166 -239t-252 -160t-311 -59.5h-432v688h-152zM375 150h248q83 0 167.5 23t164.5 72t141.5 118t99 169.5t37.5 217.5q0 114 -37.5 213.5t-99 169t-141 119.5t-164.5 74t-168 24 h-248v-512h268v-150h-268v-538z" />
<glyph unicode="&#xd1;" horiz-adv-x="1509" d="M193 0v1499h169l785 -1188v1188h170v-1499h-170l-785 1186v-1186h-169zM416 1677q19 97 72.5 155t144.5 58q47 0 97 -21.5t91.5 -43t67.5 -21.5q37 0 57 21t37 65h109q-42 -215 -211 -215q-53 0 -103 21.5t-87 43t-60 21.5q-60 0 -99 -84h-116z" />
<glyph unicode="&#xd2;" horiz-adv-x="1644" d="M102 748q0 160 52.5 302t146 245.5t228.5 164t292 60.5q158 0 293.5 -60.5t229 -164t146 -245.5t52.5 -302q0 -159 -52.5 -300t-146 -244.5t-229 -163.5t-293.5 -60q-209 0 -374.5 102.5t-255 277.5t-89.5 388zM285 748q0 -125 37.5 -237.5t105 -197.5t169.5 -134.5 t224 -49.5q162 0 286.5 85.5t188.5 225.5t64 308t-64 308.5t-188.5 227t-286.5 86.5q-122 0 -224 -50t-169.5 -135.5t-105 -198.5t-37.5 -238zM580 1948h188l133 -289h-166z" />
<glyph unicode="&#xd3;" horiz-adv-x="1644" d="M102 748q0 160 52.5 302t146 245.5t228.5 164t292 60.5q158 0 293.5 -60.5t229 -164t146 -245.5t52.5 -302q0 -159 -52.5 -300t-146 -244.5t-229 -163.5t-293.5 -60q-209 0 -374.5 102.5t-255 277.5t-89.5 388zM285 748q0 -125 37.5 -237.5t105 -197.5t169.5 -134.5 t224 -49.5q162 0 286.5 85.5t188.5 225.5t64 308t-64 308.5t-188.5 227t-286.5 86.5q-122 0 -224 -50t-169.5 -135.5t-105 -198.5t-37.5 -238zM729 1659l133 289h189l-156 -289h-166z" />
<glyph unicode="&#xd4;" horiz-adv-x="1644" d="M102 748q0 160 52.5 302t146 245.5t228.5 164t292 60.5q158 0 293.5 -60.5t229 -164t146 -245.5t52.5 -302q0 -159 -52.5 -300t-146 -244.5t-229 -163.5t-293.5 -60q-209 0 -374.5 102.5t-255 277.5t-89.5 388zM285 748q0 -125 37.5 -237.5t105 -197.5t169.5 -134.5 t224 -49.5q162 0 286.5 85.5t188.5 225.5t64 308t-64 308.5t-188.5 227t-286.5 86.5q-122 0 -224 -50t-169.5 -135.5t-105 -198.5t-37.5 -238zM555 1659l152 289h229l151 -289h-141l-125 184l-125 -184h-141z" />
<glyph unicode="&#xd5;" horiz-adv-x="1644" d="M102 748q0 160 52.5 302t146 245.5t228.5 164t292 60.5q158 0 293.5 -60.5t229 -164t146 -245.5t52.5 -302q0 -159 -52.5 -300t-146 -244.5t-229 -163.5t-293.5 -60q-209 0 -374.5 102.5t-255 277.5t-89.5 388zM285 748q0 -125 37.5 -237.5t105 -197.5t169.5 -134.5 t224 -49.5q162 0 286.5 85.5t188.5 225.5t64 308t-64 308.5t-188.5 227t-286.5 86.5q-122 0 -224 -50t-169.5 -135.5t-105 -198.5t-37.5 -238zM483 1677q19 97 72.5 155t144.5 58q47 0 97 -21.5t91.5 -43t67.5 -21.5q37 0 57.5 21t37.5 65h108q-42 -215 -211 -215 q-53 0 -103 21.5t-87 43t-60 21.5q-59 0 -98 -84h-117z" />
<glyph unicode="&#xd6;" horiz-adv-x="1644" d="M102 748q0 160 52.5 302t146 245.5t228.5 164t292 60.5q158 0 293.5 -60.5t229 -164t146 -245.5t52.5 -302q0 -159 -52.5 -300t-146 -244.5t-229 -163.5t-293.5 -60q-209 0 -374.5 102.5t-255 277.5t-89.5 388zM285 748q0 -125 37.5 -237.5t105 -197.5t169.5 -134.5 t224 -49.5q162 0 286.5 85.5t188.5 225.5t64 308t-64 308.5t-188.5 227t-286.5 86.5q-122 0 -224 -50t-169.5 -135.5t-105 -198.5t-37.5 -238zM549 1782q0 45 31.5 76.5t76.5 31.5q46 0 78.5 -31.5t32.5 -76.5q0 -46 -32.5 -78.5t-78.5 -32.5q-44 0 -76 32.5t-32 78.5z M877 1782q0 45 31.5 76.5t76.5 31.5q46 0 78.5 -31.5t32.5 -76.5q0 -46 -32.5 -78.5t-78.5 -32.5q-44 0 -76 32.5t-32 78.5z" />
<glyph unicode="&#xd7;" d="M266 362l246 246l-246 246l111 111l246 -246l245 246l111 -111l-246 -246l246 -246l-111 -110l-245 246l-246 -246z" />
<glyph unicode="&#xd8;" horiz-adv-x="1644" d="M102 748q0 160 52.5 302t146 245.5t228.5 164t292 60.5q158 0 293.5 -60.5t229 -164t146 -245.5t52.5 -302q0 -159 -52.5 -300t-146 -244.5t-229 -163.5t-293.5 -60q-209 0 -374.5 102.5t-255 277.5t-89.5 388zM285 748q0 -241 125 -410l749 905q-143 127 -338 127 q-122 0 -224 -50t-169.5 -135.5t-105 -198.5t-37.5 -238zM512 231q127 -102 309 -102q162 0 286.5 85.5t188.5 225.5t64 308q0 216 -105 380z" />
<glyph unicode="&#xd9;" horiz-adv-x="1437" d="M184 471v1028h183v-1024q0 -166 96.5 -256t255.5 -90t255.5 90t96.5 256v1024h182v-1028q0 -146 -72 -259t-193.5 -172.5t-270.5 -59.5q-147 0 -267.5 59.5t-193 172.5t-72.5 259zM522 1948h189l133 -289h-166z" />
<glyph unicode="&#xda;" horiz-adv-x="1437" d="M184 471v1028h183v-1024q0 -166 96.5 -256t255.5 -90t255.5 90t96.5 256v1024h182v-1028q0 -146 -72 -259t-193.5 -172.5t-270.5 -59.5q-147 0 -267.5 59.5t-193 172.5t-72.5 259zM598 1659l133 289h189l-156 -289h-166z" />
<glyph unicode="&#xdb;" horiz-adv-x="1437" d="M184 471v1028h183v-1024q0 -166 96.5 -256t255.5 -90t255.5 90t96.5 256v1024h182v-1028q0 -146 -72 -259t-193.5 -172.5t-270.5 -59.5q-147 0 -267.5 59.5t-193 172.5t-72.5 259zM453 1659l151 289h230l151 -289h-141l-125 184l-125 -184h-141z" />
<glyph unicode="&#xdc;" horiz-adv-x="1437" d="M184 471v1028h183v-1024q0 -166 96.5 -256t255.5 -90t255.5 90t96.5 256v1024h182v-1028q0 -146 -72 -259t-193.5 -172.5t-270.5 -59.5q-147 0 -267.5 59.5t-193 172.5t-72.5 259zM446 1782q0 45 32 76.5t77 31.5q46 0 78.5 -31.5t32.5 -76.5q0 -46 -32.5 -78.5 t-78.5 -32.5q-44 0 -76.5 32.5t-32.5 78.5zM774 1782q0 45 32 76.5t77 31.5q46 0 78 -31t32 -77t-32 -78.5t-78 -32.5q-44 0 -76.5 32.5t-32.5 78.5z" />
<glyph unicode="&#xdd;" horiz-adv-x="1239" d="M29 1499h211l385 -686l381 686h204l-501 -860v-639h-177v639zM522 1659l133 289h189l-156 -289h-166z" />
<glyph unicode="&#xde;" horiz-adv-x="1243" d="M193 0v1499h182v-287h262q144 0 249 -31.5t166 -91t89 -135.5t28 -172q0 -217 -141.5 -341t-421.5 -124h-231v-317h-182zM375 469h231q194 0 287.5 82.5t93.5 214.5q0 63 -19 114.5t-61 93.5t-118.5 65.5t-182.5 23.5h-231v-594z" />
<glyph unicode="&#xdf;" horiz-adv-x="1140" d="M170 0v1094q0 175 107 290t296 115q190 0 303 -100.5t113 -265.5q0 -117 -67 -205t-162 -121q133 -56 212 -152t79 -227q0 -117 -63.5 -220t-175 -165.5t-243.5 -62.5h-71v141h80q118 0 210.5 91.5t92.5 215.5q0 126 -90 205.5t-211 79.5h-82v139h32q135 0 212 72.5 t77 179.5q0 117 -70 185.5t-176 68.5q-101 0 -167 -61.5t-66 -176.5v-1120h-170z" />
<glyph unicode="&#xe0;" horiz-adv-x="1286" d="M111 563q0 163 58 294.5t173 211.5t268 80q120 0 196 -44.5t140 -135.5l-2 159h172v-1128h-172v172q-61 -97 -146 -144.5t-208 -47.5q-144 0 -254 79t-167.5 210.5t-57.5 293.5zM281 563q0 -115 36.5 -209t113 -153.5t181.5 -59.5q112 0 190 59.5t113 152.5t35 210 q0 115 -38 210t-116 154.5t-184 59.5q-104 0 -180.5 -59.5t-113.5 -154.5t-37 -210zM481 1577h189l133 -289h-166z" />
<glyph unicode="&#xe1;" horiz-adv-x="1286" d="M111 563q0 163 58 294.5t173 211.5t268 80q120 0 196 -44.5t140 -135.5l-2 159h172v-1128h-172v172q-61 -97 -146 -144.5t-208 -47.5q-144 0 -254 79t-167.5 210.5t-57.5 293.5zM281 563q0 -115 36.5 -209t113 -153.5t181.5 -59.5q112 0 190 59.5t113 152.5t35 210 q0 115 -38 210t-116 154.5t-184 59.5q-104 0 -180.5 -59.5t-113.5 -154.5t-37 -210zM481 1288l133 289h189l-156 -289h-166z" />
<glyph unicode="&#xe2;" horiz-adv-x="1286" d="M111 563q0 163 58 294.5t173 211.5t268 80q120 0 196 -44.5t140 -135.5l-2 159h172v-1128h-172v172q-61 -97 -146 -144.5t-208 -47.5q-144 0 -254 79t-167.5 210.5t-57.5 293.5zM281 563q0 -115 36.5 -209t113 -153.5t181.5 -59.5q112 0 190 59.5t113 152.5t35 210 q0 115 -38 210t-116 154.5t-184 59.5q-104 0 -180.5 -59.5t-113.5 -154.5t-37 -210zM360 1288l152 289h229l152 -289h-141l-125 185l-125 -185h-142z" />
<glyph unicode="&#xe3;" horiz-adv-x="1286" d="M111 563q0 163 58 294.5t173 211.5t268 80q120 0 196 -44.5t140 -135.5l-2 159h172v-1128h-172v172q-61 -97 -146 -144.5t-208 -47.5q-144 0 -254 79t-167.5 210.5t-57.5 293.5zM281 563q0 -115 36.5 -209t113 -153.5t181.5 -59.5q112 0 190 59.5t113 152.5t35 210 q0 115 -38 210t-116 154.5t-184 59.5q-104 0 -180.5 -59.5t-113.5 -154.5t-37 -210zM305 1307q19 97 72.5 155t144.5 58q47 0 97 -21.5t91.5 -43t67.5 -21.5q37 0 57 21t37 65h109q-42 -215 -211 -215q-53 0 -103 21.5t-87 43t-60 21.5q-59 0 -98 -84h-117z" />
<glyph unicode="&#xe4;" horiz-adv-x="1286" d="M111 563q0 163 58 294.5t173 211.5t268 80q120 0 196 -44.5t140 -135.5l-2 159h172v-1128h-172v172q-61 -97 -146 -144.5t-208 -47.5q-144 0 -254 79t-167.5 210.5t-57.5 293.5zM281 563q0 -115 36.5 -209t113 -153.5t181.5 -59.5q112 0 190 59.5t113 152.5t35 210 q0 115 -38 210t-116 154.5t-184 59.5q-104 0 -180.5 -59.5t-113.5 -154.5t-37 -210zM369 1411q0 45 31.5 77t76.5 32q46 0 78.5 -31.5t32.5 -77.5t-32.5 -78.5t-78.5 -32.5q-44 0 -76 32.5t-32 78.5zM696 1411q0 45 32 77t77 32q46 0 78 -31.5t32 -77.5t-32 -78.5t-78 -32.5 q-44 0 -76.5 32.5t-32.5 78.5z" />
<glyph unicode="&#xe5;" horiz-adv-x="1286" d="M111 563q0 163 58 294.5t173 211.5t268 80q120 0 196 -44.5t140 -135.5l-2 159h172v-1128h-172v172q-61 -97 -146 -144.5t-208 -47.5q-144 0 -254 79t-167.5 210.5t-57.5 293.5zM281 563q0 -115 36.5 -209t113 -153.5t181.5 -59.5q112 0 190 59.5t113 152.5t35 210 q0 115 -38 210t-116 154.5t-184 59.5q-104 0 -180.5 -59.5t-113.5 -154.5t-37 -210zM438 1454q0 85 60 145t145 60t145 -60t60 -145t-60 -145t-145 -60t-145 60t-60 145zM553 1454q0 -37 26.5 -63.5t63.5 -26.5q38 0 65 26.5t27 63.5q0 38 -27 64t-65 26q-37 0 -63.5 -26 t-26.5 -64z" />
<glyph unicode="&#xe6;" horiz-adv-x="1769" d="M49 336q0 161 108.5 245.5t317.5 84.5h283v77q0 105 -67 175.5t-195 70.5q-150 0 -287 -94l-139 98q216 156 452 156q239 0 346 -182q63 87 154 134.5t203 47.5q117 0 208.5 -45.5t148 -126t85.5 -185t29 -227.5v-39h-785q11 -175 95.5 -280t246.5 -105q170 0 291 103 l152 -76q-67 -79 -188 -133.5t-255 -54.5q-307 0 -432 247q-74 -125 -178 -186t-223 -61q-168 0 -269.5 98.5t-101.5 257.5zM217 338q0 -91 65 -147t162 -56q26 0 59 8.5t80.5 31t97.5 75t89 127.5q-22 86 -22 149h-277q-126 0 -190 -52.5t-64 -135.5zM922 666h596 q-24 152 -92 236.5t-205 84.5q-124 0 -199 -89.5t-100 -231.5z" />
<glyph unicode="&#xe7;" horiz-adv-x="1067" d="M111 565q0 162 60 293.5t178 211t274 79.5q131 0 238.5 -53t176.5 -135l-151 -76q-35 30 -63.5 48.5t-82.5 36t-118 17.5q-108 0 -187.5 -59.5t-117 -153.5t-37.5 -209t37.5 -209.5t117 -154.5t187.5 -60q92 0 155 28.5t117 74.5l152 -76q-68 -81 -180 -134.5t-244 -53.5 q-156 0 -274 79.5t-178 211.5t-60 294zM412 -449l55 109q53 -47 137 -47q107 0 107 88q0 43 -37.5 61.5t-126.5 18.5h-94v110h165q114 0 175 -51t61 -127q0 -106 -71 -155.5t-179 -49.5q-91 0 -192 43z" />
<glyph unicode="&#xe8;" horiz-adv-x="1171" d="M111 565q0 164 59 296.5t170 210t254 77.5q117 0 208.5 -45.5t148 -126t85.5 -185t29 -227.5v-39h-784q11 -175 95.5 -280t246.5 -105q169 0 290 103l152 -76q-67 -79 -187.5 -133.5t-254.5 -54.5q-126 0 -224 43.5t-160.5 122t-95 184.5t-32.5 235zM291 666h596 q-24 152 -92 236.5t-205 84.5q-124 0 -199 -89.5t-100 -231.5zM358 1577h189l133 -289h-166z" />
<glyph unicode="&#xe9;" horiz-adv-x="1171" d="M111 565q0 164 59 296.5t170 210t254 77.5q117 0 208.5 -45.5t148 -126t85.5 -185t29 -227.5v-39h-784q11 -175 95.5 -280t246.5 -105q169 0 290 103l152 -76q-67 -79 -187.5 -133.5t-254.5 -54.5q-126 0 -224 43.5t-160.5 122t-95 184.5t-32.5 235zM291 666h596 q-24 152 -92 236.5t-205 84.5q-124 0 -199 -89.5t-100 -231.5zM473 1288l133 289h189l-156 -289h-166z" />
<glyph unicode="&#xea;" horiz-adv-x="1171" d="M111 565q0 164 59 296.5t170 210t254 77.5q117 0 208.5 -45.5t148 -126t85.5 -185t29 -227.5v-39h-784q11 -175 95.5 -280t246.5 -105q169 0 290 103l152 -76q-67 -79 -187.5 -133.5t-254.5 -54.5q-126 0 -224 43.5t-160.5 122t-95 184.5t-32.5 235zM291 666h596 q-24 152 -92 236.5t-205 84.5q-124 0 -199 -89.5t-100 -231.5zM303 1288l152 289h229l152 -289h-142l-125 185l-125 -185h-141z" />
<glyph unicode="&#xeb;" horiz-adv-x="1171" d="M111 565q0 164 59 296.5t170 210t254 77.5q117 0 208.5 -45.5t148 -126t85.5 -185t29 -227.5v-39h-784q11 -175 95.5 -280t246.5 -105q169 0 290 103l152 -76q-67 -79 -187.5 -133.5t-254.5 -54.5q-126 0 -224 43.5t-160.5 122t-95 184.5t-32.5 235zM291 666h596 q-24 152 -92 236.5t-205 84.5q-124 0 -199 -89.5t-100 -231.5zM311 1411q0 45 32 77t77 32q46 0 78 -31.5t32 -77.5t-32 -78.5t-78 -32.5q-44 0 -76.5 32.5t-32.5 78.5zM639 1411q0 45 32 77t77 32q46 0 78 -31.5t32 -77.5t-32 -78.5t-78 -32.5q-44 0 -76.5 32.5t-32.5 78.5 z" />
<glyph unicode="&#xec;" horiz-adv-x="538" d="M109 1577h188l133 -289h-166zM184 0v1128h170v-1128h-170z" />
<glyph unicode="&#xed;" horiz-adv-x="538" d="M109 1288l133 289h188l-156 -289h-165zM184 0v1128h170v-1128h-170z" />
<glyph unicode="&#xee;" horiz-adv-x="538" d="M4 1288l152 289h229l152 -289h-142l-125 185l-125 -185h-141zM184 0v1128h170v-1128h-170z" />
<glyph unicode="&#xef;" horiz-adv-x="538" d="M-4 1411q0 45 32 77t76 32q46 0 78.5 -31.5t32.5 -77.5t-32.5 -78.5t-78.5 -32.5q-44 0 -76 32.5t-32 78.5zM184 0v1128h170v-1128h-170zM324 1411q0 45 32 77t76 32q46 0 78.5 -31.5t32.5 -77.5t-32.5 -78.5t-78.5 -32.5q-44 0 -76 32.5t-32 78.5z" />
<glyph unicode="&#xf0;" horiz-adv-x="1232" d="M111 565q0 163 58 294t174.5 210.5t272.5 79.5q56 0 160 -29q-11 21 -24.5 42.5t-35 49.5t-33 42.5t-40.5 49.5t-35 42l-229 -56l-29 123l166 39l-137 145h219q50 -49 96 -102l234 55l28 -123l-170 -41q336 -421 336 -821q0 -121 -34.5 -227t-97.5 -186t-159.5 -126 t-214.5 -46q-156 0 -272.5 79.5t-174.5 211t-58 294.5zM281 565q0 -86 21 -161.5t61.5 -134.5t105.5 -93.5t147 -34.5q108 0 186 60t114 154t36 210t-36 209.5t-114 153t-186 59.5q-82 0 -147 -34t-105.5 -93t-61.5 -134t-21 -161z" />
<glyph unicode="&#xf1;" horiz-adv-x="1222" d="M170 0v1128h162v-208q63 96 174.5 162.5t216.5 66.5q152 0 241 -89t89 -249v-811h-172v793q0 96 -48.5 148t-136.5 52t-181 -62t-175 -175v-756h-170zM272 1307q19 97 72.5 155t144.5 58q47 0 97 -21.5t91.5 -43t67.5 -21.5q37 0 57.5 21t37.5 65h108q-42 -215 -211 -215 q-53 0 -103 21.5t-87 43t-60 21.5q-59 0 -98 -84h-117z" />
<glyph unicode="&#xf2;" horiz-adv-x="1232" d="M111 565q0 163 58 294t174.5 210.5t272.5 79.5q118 0 214.5 -46t159.5 -125.5t97.5 -185.5t34.5 -227t-34.5 -227t-97.5 -186t-159.5 -126t-214.5 -46q-156 0 -272.5 79.5t-174.5 211t-58 294.5zM281 565q0 -86 21 -161.5t61.5 -134.5t105.5 -93.5t147 -34.5 q108 0 186 60t114 154t36 210t-36 209.5t-114 153t-186 59.5q-82 0 -147 -34t-105.5 -93t-61.5 -134t-21 -161zM371 1577h188l133 -289h-166z" />
<glyph unicode="&#xf3;" horiz-adv-x="1232" d="M111 565q0 163 58 294t174.5 210.5t272.5 79.5q118 0 214.5 -46t159.5 -125.5t97.5 -185.5t34.5 -227t-34.5 -227t-97.5 -186t-159.5 -126t-214.5 -46q-156 0 -272.5 79.5t-174.5 211t-58 294.5zM281 565q0 -86 21 -161.5t61.5 -134.5t105.5 -93.5t147 -34.5 q108 0 186 60t114 154t36 210t-36 209.5t-114 153t-186 59.5q-82 0 -147 -34t-105.5 -93t-61.5 -134t-21 -161zM520 1288l133 289h189l-156 -289h-166z" />
<glyph unicode="&#xf4;" horiz-adv-x="1232" d="M111 565q0 163 58 294t174.5 210.5t272.5 79.5q118 0 214.5 -46t159.5 -125.5t97.5 -185.5t34.5 -227t-34.5 -227t-97.5 -186t-159.5 -126t-214.5 -46q-156 0 -272.5 79.5t-174.5 211t-58 294.5zM281 565q0 -86 21 -161.5t61.5 -134.5t105.5 -93.5t147 -34.5 q108 0 186 60t114 154t36 210t-36 209.5t-114 153t-186 59.5q-82 0 -147 -34t-105.5 -93t-61.5 -134t-21 -161zM334 1288l151 289h230l151 -289h-141l-125 185l-125 -185h-141z" />
<glyph unicode="&#xf5;" horiz-adv-x="1232" d="M111 565q0 163 58 294t174.5 210.5t272.5 79.5q118 0 214.5 -46t159.5 -125.5t97.5 -185.5t34.5 -227t-34.5 -227t-97.5 -186t-159.5 -126t-214.5 -46q-156 0 -272.5 79.5t-174.5 211t-58 294.5zM279 1307q19 97 72.5 155t144.5 58q47 0 97 -21.5t91.5 -43t67.5 -21.5 q37 0 57 21t37 65h108q-42 -215 -211 -215q-53 0 -102.5 21.5t-86.5 43t-60 21.5q-60 0 -99 -84h-116zM281 565q0 -86 21 -161.5t61.5 -134.5t105.5 -93.5t147 -34.5q108 0 186 60t114 154t36 210t-36 209.5t-114 153t-186 59.5q-82 0 -147 -34t-105.5 -93t-61.5 -134 t-21 -161z" />
<glyph unicode="&#xf6;" horiz-adv-x="1232" d="M111 565q0 163 58 294t174.5 210.5t272.5 79.5q118 0 214.5 -46t159.5 -125.5t97.5 -185.5t34.5 -227t-34.5 -227t-97.5 -186t-159.5 -126t-214.5 -46q-156 0 -272.5 79.5t-174.5 211t-58 294.5zM281 565q0 -86 21 -161.5t61.5 -134.5t105.5 -93.5t147 -34.5 q108 0 186 60t114 154t36 210t-36 209.5t-114 153t-186 59.5q-82 0 -147 -34t-105.5 -93t-61.5 -134t-21 -161zM342 1411q0 45 32 77t77 32q46 0 78 -31.5t32 -77.5t-32 -78.5t-78 -32.5q-44 0 -76.5 32.5t-32.5 78.5zM670 1411q0 45 32 77t76 32q46 0 78.5 -31.5 t32.5 -77.5t-32.5 -78.5t-78.5 -32.5q-44 0 -76 32.5t-32 78.5z" />
<glyph unicode="&#xf7;" d="M197 530v156h852v-156h-852zM489 145q0 57 39 96.5t95 39.5q57 0 96 -39.5t39 -96.5q0 -56 -39 -94.5t-96 -38.5q-56 0 -95 39t-39 94zM489 1047q0 56 39.5 95.5t94.5 39.5q57 0 96 -39.5t39 -95.5t-39 -95t-96 -39q-55 0 -94.5 39.5t-39.5 94.5z" />
<glyph unicode="&#xf8;" horiz-adv-x="1232" d="M111 565q0 163 58 294t174.5 210.5t272.5 79.5q118 0 214.5 -46t159.5 -125.5t97.5 -185.5t34.5 -227t-34.5 -227t-97.5 -186t-159.5 -126t-214.5 -46q-156 0 -272.5 79.5t-174.5 211t-58 294.5zM281 565q0 -161 67 -274l440 647q-74 49 -172 49q-82 0 -147 -34 t-105.5 -93t-61.5 -134t-21 -161zM442 190q70 -49 174 -49q108 0 186 60t114 154t36 210q0 160 -67 273z" />
<glyph unicode="&#xf9;" horiz-adv-x="1193" d="M170 317v811h172v-792q0 -97 48 -149t136 -52q163 0 336 238v755h170v-1128h-162v209q-64 -98 -165.5 -163.5t-204.5 -65.5q-152 0 -241 89t-89 248zM436 1577h189l133 -289h-166z" />
<glyph unicode="&#xfa;" horiz-adv-x="1193" d="M170 317v811h172v-792q0 -97 48 -149t136 -52q163 0 336 238v755h170v-1128h-162v209q-64 -98 -165.5 -163.5t-204.5 -65.5q-152 0 -241 89t-89 248zM436 1288l133 289h189l-156 -289h-166z" />
<glyph unicode="&#xfb;" horiz-adv-x="1193" d="M170 317v811h172v-792q0 -97 48 -149t136 -52q163 0 336 238v755h170v-1128h-162v209q-64 -98 -165.5 -163.5t-204.5 -65.5q-152 0 -241 89t-89 248zM313 1288l152 289h229l152 -289h-141l-125 185l-125 -185h-142z" />
<glyph unicode="&#xfc;" horiz-adv-x="1193" d="M170 317v811h172v-792q0 -97 48 -149t136 -52q163 0 336 238v755h170v-1128h-162v209q-64 -98 -165.5 -163.5t-204.5 -65.5q-152 0 -241 89t-89 248zM324 1411q0 45 32 77t76 32q46 0 78.5 -31.5t32.5 -77.5t-32.5 -78.5t-78.5 -32.5q-44 0 -76 32.5t-32 78.5zM651 1411 q0 45 32 77t77 32q46 0 78 -31.5t32 -77.5t-32 -78.5t-78 -32.5q-44 0 -76.5 32.5t-32.5 78.5z" />
<glyph unicode="&#xfd;" horiz-adv-x="1105" d="M55 1128h187l325 -835l307 835h181l-480 -1255q-31 -79 -72 -144.5t-84 -108t-81.5 -69.5t-75.5 -43l-78 136q3 2 21.5 13.5t27 17.5t28.5 20.5t32 26.5t30.5 32t32 40t28.5 47t26 57l69 180zM469 1288l133 289h189l-156 -289h-166z" />
<glyph unicode="&#xfe;" horiz-adv-x="1306" d="M170 -471v2068h170v-657q127 209 362 209q147 0 260.5 -79t173.5 -211.5t60 -293.5q0 -160 -62.5 -293.5t-176.5 -212.5t-255 -79q-240 0 -362 210v-661h-170zM336 565q0 -86 21 -161.5t62 -134.5t108 -93.5t153 -34.5q104 0 184 59.5t121 155t41 209.5 q0 113 -41.5 208.5t-121.5 154.5t-183 59q-159 0 -251.5 -122.5t-92.5 -299.5z" />
<glyph unicode="&#xff;" horiz-adv-x="1146" d="M74 1128h186l326 -835l307 835h180l-479 -1255q-31 -79 -72 -144.5t-84 -108t-81.5 -69.5t-75.5 -43l-78 136q2 2 21 13.5t27 17t28.5 20.5t32 27t30.5 32t32 40t28 47t26 57l70 180zM299 1411q0 45 32 77t77 32q46 0 78 -31.5t32 -77.5t-32 -78.5t-78 -32.5 q-44 0 -76.5 32.5t-32.5 78.5zM627 1411q0 45 31.5 77t76.5 32q46 0 78.5 -31.5t32.5 -77.5t-32.5 -78.5t-78.5 -32.5q-44 0 -76 32.5t-32 78.5z" />
<glyph unicode="&#x152;" horiz-adv-x="2336" d="M102 748q0 213 89 389.5t250 279.5t362 103q173 0 312.5 -71t232.5 -198v248h895v-149h-713v-512h567v-150h-567v-538h727v-150h-909v246q-93 -126 -232.5 -196t-312.5 -70q-209 0 -370 103t-246 277t-85 388zM285 748q0 -125 37.5 -237.5t105 -197.5t169.5 -134.5 t224 -49.5q162 0 286.5 85.5t188.5 225.5t64 308t-64 308.5t-188.5 227t-286.5 86.5q-122 0 -224 -50t-169.5 -135.5t-105 -198.5t-37.5 -238z" />
<glyph unicode="&#x153;" horiz-adv-x="1994" d="M111 565q0 163 58 294t174.5 210.5t272.5 79.5q143 0 247 -65.5t165 -182.5q59 116 158.5 182t230.5 66q117 0 208.5 -45.5t148 -126t85.5 -185t29 -227.5v-39h-784q11 -175 95.5 -280t246.5 -105q170 0 291 103l151 -76q-67 -79 -187.5 -133.5t-254.5 -54.5 q-303 0 -422 241q-60 -114 -163.5 -177.5t-244.5 -63.5q-156 0 -272.5 79.5t-174.5 211t-58 294.5zM281 565q0 -86 21 -161.5t61.5 -134.5t105.5 -93.5t147 -34.5q108 0 186 60t114 154t36 210t-36 209.5t-114 153t-186 59.5q-82 0 -147 -34t-105.5 -93t-61.5 -134t-21 -161 zM1114 666h596q-24 152 -92 236.5t-205 84.5q-124 0 -199 -89.5t-100 -231.5z" />
<glyph unicode="&#x178;" horiz-adv-x="1239" d="M29 1499h211l385 -686l381 686h204l-501 -860v-639h-177v639zM342 1718q0 45 32 77t77 32q46 0 78 -31.5t32 -77.5t-32 -78t-78 -32q-45 0 -77 32t-32 78zM670 1718q0 46 32 77.5t76 31.5q46 0 78.5 -31.5t32.5 -77.5t-32.5 -78t-78.5 -32q-44 0 -76 32t-32 78z" />
<glyph unicode="&#x2c6;" horiz-adv-x="737" d="M86 1288l152 289h229l151 -289h-141l-125 185l-125 -185h-141z" />
<glyph unicode="&#x2dc;" horiz-adv-x="839" d="M82 1307q19 97 72.5 155t144.5 58q47 0 97 -21.5t91.5 -43t67.5 -21.5q37 0 57 21t37 65h109q-42 -215 -211 -215q-53 0 -103 21.5t-87 43t-60 21.5q-59 0 -98 -84h-117z" />
<glyph unicode="&#x2000;" horiz-adv-x="974" />
<glyph unicode="&#x2001;" horiz-adv-x="1948" />
<glyph unicode="&#x2002;" horiz-adv-x="974" />
<glyph unicode="&#x2003;" horiz-adv-x="1948" />
<glyph unicode="&#x2004;" horiz-adv-x="649" />
<glyph unicode="&#x2005;" horiz-adv-x="487" />
<glyph unicode="&#x2006;" horiz-adv-x="324" />
<glyph unicode="&#x2007;" horiz-adv-x="324" />
<glyph unicode="&#x2008;" horiz-adv-x="243" />
<glyph unicode="&#x2009;" horiz-adv-x="389" />
<glyph unicode="&#x200a;" horiz-adv-x="108" />
<glyph unicode="&#x2010;" horiz-adv-x="827" d="M102 567v158h623v-158h-623z" />
<glyph unicode="&#x2011;" horiz-adv-x="827" d="M102 567v158h623v-158h-623z" />
<glyph unicode="&#x2012;" horiz-adv-x="827" d="M102 567v158h623v-158h-623z" />
<glyph unicode="&#x2013;" horiz-adv-x="1024" d="M86 571v152h852v-152h-852z" />
<glyph unicode="&#x2014;" horiz-adv-x="2048" d="M143 571v152h1762v-152h-1762z" />
<glyph unicode="&#x2018;" horiz-adv-x="432" d="M82 1110q0 167 180 410l80 -43q-82 -119 -100 -238q43 -10 68.5 -46t25.5 -83q0 -57 -36 -96t-91 -39q-56 0 -91.5 38.5t-35.5 96.5z" />
<glyph unicode="&#x2019;" horiz-adv-x="432" d="M86 1018q82 120 100 237q-43 10 -68.5 46t-25.5 83q0 58 36 97t91 39q56 0 91.5 -39t35.5 -97q0 -166 -180 -409z" />
<glyph unicode="&#x201a;" horiz-adv-x="432" d="M78 -254q82 119 100 238q-43 10 -68.5 46t-25.5 83q0 57 36 96t91 39q56 0 91.5 -38.5t35.5 -96.5q0 -167 -180 -410z" />
<glyph unicode="&#x201c;" horiz-adv-x="800" d="M82 1110q0 167 180 410l80 -43q-82 -119 -100 -238q43 -10 68.5 -46t25.5 -83q0 -57 -36 -96t-91 -39q-56 0 -91.5 38.5t-35.5 96.5zM451 1110q0 167 180 410l80 -43q-83 -121 -101 -238q43 -10 69 -46t26 -83q0 -57 -36 -96t-91 -39q-56 0 -91.5 38.5t-35.5 96.5z" />
<glyph unicode="&#x201d;" horiz-adv-x="800" d="M86 1018q82 120 100 237q-43 10 -68.5 46t-25.5 83q0 58 36 97t91 39q56 0 91.5 -39t35.5 -97q0 -166 -180 -409zM455 1018q82 120 100 237q-43 10 -68.5 46t-25.5 83q0 58 36 97t91 39q56 0 91.5 -39t35.5 -97q0 -166 -180 -409z" />
<glyph unicode="&#x201e;" horiz-adv-x="800" d="M78 -254q82 119 100 238q-43 10 -68.5 46t-25.5 83q0 57 36 96t91 39q56 0 91.5 -38.5t35.5 -96.5q0 -167 -180 -410zM446 -254q83 121 101 238q-43 10 -68.5 46t-25.5 83q0 57 36 96t91 39q56 0 91.5 -38.5t35.5 -96.5q0 -165 -181 -410z" />
<glyph unicode="&#x2022;" horiz-adv-x="1363" d="M223 629q0 191 134.5 326t324.5 135q125 0 231 -62t168 -168t62 -231q0 -190 -135 -324.5t-326 -134.5q-190 0 -324.5 134t-134.5 325z" />
<glyph unicode="&#x2026;" horiz-adv-x="1296" d="M82 113q0 57 38.5 96t94.5 39q57 0 96 -39t39 -96q0 -56 -39 -94.5t-96 -38.5q-55 0 -94 39t-39 94zM514 113q0 57 38.5 96t94.5 39q57 0 96 -39t39 -96q0 -56 -39 -94.5t-96 -38.5q-55 0 -94 39t-39 94zM946 113q0 57 38.5 96t94.5 39q57 0 96 -39t39 -96 q0 -56 -39 -94.5t-96 -38.5q-55 0 -94 39t-39 94z" />
<glyph unicode="&#x202f;" horiz-adv-x="389" />
<glyph unicode="&#x2039;" horiz-adv-x="804" d="M123 586l364 461h160l-289 -461l289 -463h-160z" />
<glyph unicode="&#x203a;" horiz-adv-x="804" d="M158 123l288 463l-288 461h159l365 -461l-365 -463h-159z" />
<glyph unicode="&#x205f;" horiz-adv-x="487" />
<glyph unicode="&#x20ac;" d="M98 530v142h144q-2 25 -2 86q0 40 4 114h-146v144h170q53 236 205.5 370t398.5 134q206 0 367 -119l-82 -139q-117 102 -285 102q-340 0 -423 -348h495v-144h-518q-4 -74 -4 -114q0 -61 2 -86h520v-142h-502q38 -183 143 -290t287 -107q160 0 275 90l84 -135 q-159 -108 -359 -108q-127 0 -232 40.5t-179.5 115t-124.5 173.5t-74 221h-164z" />
<glyph unicode="&#x2122;" horiz-adv-x="1536" d="M170 1397v102h492v-102h-183v-539h-127v539h-182zM768 858v641h131l176 -282l174 284h131v-643h-127v436l-178 -276l-180 276v-436h-127z" />
<glyph unicode="&#x25fc;" horiz-adv-x="1126" d="M0 0v1126h1126v-1126h-1126z" />
<glyph unicode="&#xfb01;" horiz-adv-x="1161" d="M35 981v147h172v168q0 162 74.5 242t216.5 80q149 0 256 -86l-88 -113q-29 21 -75.5 36t-92.5 15q-67 0 -94 -38t-27 -93v-211h260v-147h-260v-981h-170v981h-172zM782 1411q0 45 32 77t77 32q46 0 78 -31.5t32 -77.5t-32 -78.5t-78 -32.5q-44 0 -76.5 32.5t-32.5 78.5z M807 0v1128h170v-1128h-170z" />
<glyph unicode="&#xfb02;" horiz-adv-x="1153" d="M35 981v147h172v168q0 162 74.5 242t216.5 80q149 0 256 -86l-88 -113q-29 21 -75.5 36t-92.5 15q-67 0 -94 -38t-27 -93v-211h260v-147h-260v-981h-170v981h-172zM799 0v1597h170v-1597h-170z" />
<glyph unicode="&#xfb03;" horiz-adv-x="1763" d="M35 981v147h172v168q0 162 74.5 242t216.5 80q149 0 256 -86l-88 -113q-29 21 -75.5 36t-92.5 15q-67 0 -94 -38t-27 -93v-211h432v168q0 162 74.5 242t216.5 80q149 0 256 -86l-88 -113q-29 21 -75.5 36t-92.5 15q-67 0 -94 -38t-27 -93v-211h260v-147h-260v-981h-170 v981h-432v-981h-170v981h-172zM1384 1411q0 45 32 77t77 32q46 0 78.5 -31.5t32.5 -77.5t-32.5 -78.5t-78.5 -32.5q-44 0 -76.5 32.5t-32.5 78.5zM1409 0v1128h170v-1128h-170z" />
<glyph unicode="&#xfb04;" horiz-adv-x="1755" d="M35 981v147h172v168q0 162 74.5 242t216.5 80q149 0 256 -86l-88 -113q-29 21 -75.5 36t-92.5 15q-67 0 -94 -38t-27 -93v-211h432v168q0 162 74.5 242t216.5 80q149 0 256 -86l-88 -113q-29 21 -75.5 36t-92.5 15q-67 0 -94 -38t-27 -93v-211h260v-147h-260v-981h-170 v981h-432v-981h-170v981h-172zM1401 0v1597h170v-1597h-170z" />
</font>
</defs>
</svg>
