<?xml version="1.0" standalone="no"?>
<!DOCTYPE svg PUBLIC "-//W3C//DTD SVG 1.1//EN" "http://www.w3.org/Graphics/SVG/1.1/DTD/svg11.dtd" >
<svg xmlns="http://www.w3.org/2000/svg">
<metadata></metadata>
<defs>
<font id="the_wavedemibold" horiz-adv-x="1245" >
<font-face units-per-em="2048" ascent="1536" descent="-512" />
<missing-glyph horiz-adv-x="409" />
<glyph horiz-adv-x="0" />
<glyph horiz-adv-x="682" />
<glyph unicode=" "  horiz-adv-x="409" />
<glyph unicode="&#x09;" horiz-adv-x="409" />
<glyph unicode="&#xa0;" horiz-adv-x="409" />
<glyph unicode="!" horiz-adv-x="716" d="M190 147q0 70 49.5 119t118.5 49q71 0 120.5 -49t49.5 -119t-49.5 -118.5t-120.5 -48.5q-69 0 -118.5 48.5t-49.5 118.5zM213 1499h287l-56 -977h-174z" />
<glyph unicode="&#x22;" horiz-adv-x="946" d="M109 1499h299l-66 -598h-168zM539 1499h299l-66 -598h-168z" />
<glyph unicode="#" d="M125 537v149h221l39 229h-260v150h287l77 436h150l-78 -436h230l77 436h150l-78 -436h180v-150h-207l-39 -229h246v-149h-272l-94 -537h-150l94 537h-229l-94 -537h-150l94 537h-194zM496 686h229l39 229h-229z" />
<glyph unicode="$" horiz-adv-x="1304" d="M117 344l176 148q69 -43 163.5 -64.5t186.5 -21.5q42 0 83.5 8t79 22.5t60.5 40.5t23 58q0 41 -31.5 68t-83 40t-117 26t-134 23t-134 34t-117 57.5t-83 94t-31.5 142.5q0 127 93 210.5t249 110.5v158h262v-156q101 -14 192 -49.5t152 -85.5l-166 -151 q-64 31 -149.5 53.5t-165.5 22.5q-38 0 -75 -5t-71.5 -16t-56 -31.5t-21.5 -48.5q0 -42 41 -68.5t106 -41t144 -27.5t158 -34t144 -53t106 -93t41 -146q0 -150 -104 -247.5t-275 -126.5v-195h-262v193q-128 18 -234.5 64t-148.5 87z" />
<glyph unicode="%" horiz-adv-x="1902" d="M92 1104q0 160 110 272.5t269 112.5t268 -112t109 -273t-109 -273t-268 -112t-269 112.5t-110 272.5zM287 1104q0 -81 53 -139t131 -58t130 58t52 139t-52 137.5t-130 56.5q-79 0 -131.5 -56.5t-52.5 -137.5zM467 -10q262 510 782 1530h199l-782 -1530h-199zM1051 362 q0 160 110 273t269 113t268.5 -112.5t109.5 -273.5q0 -159 -109.5 -270.5t-268.5 -111.5t-269 111.5t-110 270.5zM1247 362q0 -81 52.5 -137.5t130.5 -56.5t130 56.5t52 137.5t-52 138t-130 57t-130.5 -57t-52.5 -138z" />
<glyph unicode="&#x26;" horiz-adv-x="1314" d="M39 412q0 128 83.5 235.5t219.5 188.5q-143 198 -143 325q0 113 60 196.5t154.5 123t207.5 39.5q150 0 259 -99.5t109 -238.5q0 -224 -311 -400l231 -290q74 154 74 325h258q0 -131 -47 -266t-131 -252l240 -299h-310l-98 125q-182 -145 -395 -145q-198 0 -329.5 117 t-131.5 315zM293 422q0 -113 63.5 -179.5t161.5 -66.5q134 0 250 113l-303 389q-172 -118 -172 -256zM459 1169q0 -53 30 -118t70 -115q75 44 124.5 103t49.5 130q0 70 -40 114t-91 44q-57 0 -100 -44.5t-43 -113.5z" />
<glyph unicode="'" horiz-adv-x="516" d="M109 1499h299l-66 -598h-168z" />
<glyph unicode="(" horiz-adv-x="868" d="M229 612q0 160 40.5 319t108.5 289t153 235t178 173l86 -78q-275 -396 -275 -938q0 -563 285 -936l-86 -86q-94 66 -180.5 171.5t-156.5 237t-111.5 292t-41.5 321.5z" />
<glyph unicode=")" horiz-adv-x="868" d="M63 -324q285 373 285 936q0 543 -274 938l86 78q93 -68 178 -173t152.5 -235t108 -289t40.5 -319q0 -161 -41.5 -321.5t-111 -292t-156 -237t-180.5 -171.5z" />
<glyph unicode="*" horiz-adv-x="876" d="M88 1200l53 150l240 -97l-25 246h170l-28 -252l237 101l53 -146l-258 -51l172 -197l-135 -82l-133 211l-129 -211l-137 84l180 197z" />
<glyph unicode="+" d="M170 547v209h346v352h209v-352h350v-209h-350v-363h-209v363h-346z" />
<glyph unicode="," horiz-adv-x="516" d="M86 147q0 70 49.5 119t118.5 49q71 0 120.5 -50.5t49.5 -125.5q0 -115 -60.5 -253.5t-146.5 -264.5l-127 57q104 164 127 306q-57 12 -94 57.5t-37 105.5z" />
<glyph unicode="-" horiz-adv-x="825" d="M102 553v213h621v-213h-621z" />
<glyph unicode="." horiz-adv-x="516" d="M90 147q0 71 49 119.5t119 48.5t119 -48.5t49 -119.5q0 -70 -48.5 -118.5t-119.5 -48.5t-119.5 48.5t-48.5 118.5z" />
<glyph unicode="/" horiz-adv-x="1024" d="M0 -102l803 1699h221l-803 -1699h-221z" />
<glyph unicode="0" d="M100 748q0 379 143 575.5t380 196.5q115 0 209.5 -47.5t165 -141t109 -242.5t38.5 -341q0 -190 -38.5 -338t-109 -241t-165 -141t-209.5 -48t-210 48t-165 141t-109 241t-39 338zM358 748q0 -143 19.5 -249t56 -167.5t83.5 -91t106 -29.5q58 0 105 29.5t83 91t56 167.5 t20 249q0 281 -71.5 410.5t-192.5 129.5q-59 0 -106 -29.5t-83.5 -91.5t-56 -168.5t-19.5 -250.5z" />
<glyph unicode="1" d="M201 995v174h61q141 0 226.5 76.5t103.5 253.5h227v-1499h-254v995h-364z" />
<glyph unicode="2" d="M35 0l637 793q125 152 125 260q0 97 -66.5 167t-167.5 70q-95 0 -158.5 -56.5t-111.5 -154.5l-230 80q53 157 201 259t311 102q216 0 355 -125t139 -334q0 -61 -13 -113t-45 -107t-61 -94t-86 -108l-342 -418h613v-221h-1100z" />
<glyph unicode="3" d="M66 219l221 88q53 -42 127.5 -70t140.5 -28q120 0 210.5 78t90.5 205q0 138 -94.5 208t-245.5 70h-110l-52 125l340 395h-547v209h1000l-461 -532q92 -10 168.5 -42.5t135 -88t91.5 -140.5t33 -192q0 -121 -46.5 -221.5t-124.5 -165.5t-178.5 -101t-209.5 -36 q-164 0 -292 68.5t-197 170.5z" />
<glyph unicode="4" d="M96 313v203l363 983h268l-362 -962h462v548h252v-1085h-254v313h-729z" />
<glyph unicode="5" d="M88 141l172 164q60 -41 137 -67.5t138 -26.5q131 0 220 78t89 203q0 126 -89 201t-245 75h-336l105 731h722v-209h-507l-45 -305h137q223 0 369.5 -137t146.5 -344q0 -153 -77.5 -273.5t-206.5 -185.5t-283 -65q-124 0 -245.5 45t-201.5 116z" />
<glyph unicode="6" d="M111 500q0 112 40.5 205t118.5 200l430 594h297l-374 -504q24 4 34 4q200 0 339 -145.5t139 -355.5q0 -217 -149.5 -367.5t-362.5 -150.5q-140 0 -257.5 68.5t-186 188t-68.5 263.5zM367 500q0 -120 74.5 -198.5t181.5 -78.5t181.5 79t74.5 200q0 117 -74.5 194.5 t-181.5 77.5t-181.5 -78t-74.5 -196z" />
<glyph unicode="7" d="M76 1278v221h1069l-602 -1499h-293l553 1278h-727z" />
<glyph unicode="8" d="M111 418q0 135 72 235.5t171 143.5q-83 30 -147 116.5t-64 204.5q0 117 66.5 210t175.5 142.5t238 49.5q203 0 341 -112.5t138 -289.5q0 -118 -63 -204t-146 -115q99 -42 170.5 -144t71.5 -237q0 -128 -70.5 -230t-187 -156.5t-254.5 -54.5t-254.5 54.5t-187 156.5 t-70.5 230zM369 432q0 -100 73 -169.5t181 -69.5q109 0 181.5 69t72.5 170q0 109 -72.5 180.5t-181.5 71.5q-110 0 -182 -71.5t-72 -180.5zM393 1098q0 -88 67 -149.5t163 -61.5t162.5 61.5t66.5 149.5t-66.5 149.5t-162.5 61.5t-163 -61.5t-67 -149.5z" />
<glyph unicode="9" d="M104 1001q0 143 68.5 262.5t186 188t257.5 68.5q104 0 199 -40.5t163.5 -109.5t109 -166t40.5 -205q0 -128 -69 -251q-135 -236 -490 -748h-297l357 512q-28 -4 -43 -4q-204 0 -343 141.5t-139 351.5zM360 997q0 -117 74.5 -194.5t181.5 -77.5t180.5 77.5t73.5 196.5 q0 120 -73.5 197.5t-180.5 77.5q-108 0 -182 -78t-74 -199z" />
<glyph unicode=":" horiz-adv-x="643" d="M152 147q0 70 49.5 119t120.5 49q69 0 118 -49t49 -119t-49 -118.5t-118 -48.5q-71 0 -120.5 48.5t-49.5 118.5zM152 979q0 69 50 119.5t120 50.5q69 0 118 -50.5t49 -119.5t-49 -118.5t-118 -49.5q-70 0 -120 49.5t-50 118.5z" />
<glyph unicode=";" horiz-adv-x="643" d="M152 147q0 70 49 119t118 49q71 0 120.5 -50.5t49.5 -125.5q0 -115 -60 -254t-146 -264l-131 47q45 72 82.5 159t48.5 157q-57 12 -94 57.5t-37 105.5zM152 979q0 69 50 119.5t120 50.5q69 0 118 -50.5t49 -119.5t-49 -118.5t-118 -49.5q-70 0 -120 49.5t-50 118.5z" />
<glyph unicode="&#x3c;" d="M170 526v246q392 173 905 395v-221l-737 -295l737 -295v-221z" />
<glyph unicode="=" d="M170 332v209h905v-209h-905zM170 762v209h905v-209h-905z" />
<glyph unicode="&#x3e;" d="M170 135v221l737 295l-737 295v221l905 -395v-246z" />
<glyph unicode="?" horiz-adv-x="1093" d="M14 1358q59 57 189.5 109.5t261.5 52.5q217 0 352 -105.5t135 -312.5q0 -82 -27.5 -153t-70 -126.5t-87.5 -106t-88 -115t-63 -130.5h-247q17 92 55.5 170t81 130t82.5 100.5t66 104.5t26 120q0 98 -61.5 143t-159.5 45q-82 0 -171 -37.5t-151 -83.5zM326 147 q0 70 49.5 119t118.5 49q70 0 119 -48.5t49 -119.5q0 -70 -48.5 -118.5t-119.5 -48.5q-69 0 -118.5 48.5t-49.5 118.5z" />
<glyph unicode="@" horiz-adv-x="1703" d="M115 750q0 210 98.5 387t270.5 280t378 103q154 0 291 -58t235.5 -158t156 -239.5t57.5 -296.5q0 -171 -106.5 -292.5t-256.5 -121.5q-53 0 -104.5 31.5t-73.5 87.5q-83 -119 -234 -119q-154 0 -247 117t-93 291q0 112 41 204t122.5 148.5t189.5 56.5q62 0 115 -34 t89 -88v94h152v-520q0 -117 59 -117q64 0 117 64t53 190q0 172 -71 310t-200 217t-292 79q-165 0 -295 -81.5t-201 -222t-71 -312.5t71 -312.5t201 -222.5t295 -82q162 0 307 86l82 -129q-202 -110 -389 -110q-154 0 -293 61.5t-238.5 165t-157.5 245.5t-58 298zM651 762 q0 -104 51.5 -179t139.5 -75q94 0 142 73.5t48 180.5q0 103 -51 178.5t-139 75.5t-139.5 -75.5t-51.5 -178.5z" />
<glyph unicode="A" horiz-adv-x="1413" d="M39 0l547 1499h243l545 -1499h-278l-131 385h-521l-129 -385h-276zM518 598h375l-188 557z" />
<glyph unicode="B" horiz-adv-x="1329" d="M182 0v1499h486q254 0 388 -102.5t134 -294.5q0 -101 -58 -181.5t-149 -111.5q137 -42 210 -137.5t73 -225.5q0 -200 -147 -323t-412 -123h-525zM455 229h268q121 0 195.5 60t74.5 164q0 103 -77 160t-193 57h-268v-441zM455 881h198q127 0 198 50.5t71 147.5 q0 92 -64 140.5t-186 48.5h-217v-387z" />
<glyph unicode="C" horiz-adv-x="1380" d="M92 748q0 160 55 302t152 245.5t236.5 164t300.5 60.5q140 0 267.5 -56t215.5 -139l-184 -156q-45 32 -79.5 52.5t-95.5 40.5t-124 20q-137 0 -245.5 -71.5t-167 -193t-58.5 -269.5q0 -147 59 -268.5t167.5 -193t244.5 -71.5q159 0 319 125l205 -131q-92 -97 -232 -163 t-292 -66q-161 0 -300.5 60t-236.5 163t-152 244.5t-55 300.5z" />
<glyph unicode="D" horiz-adv-x="1484" d="M182 0v1499h410q219 0 399.5 -94.5t285.5 -266.5t105 -388q0 -153 -61 -291.5t-166 -239t-252 -160t-311 -59.5h-410zM455 229h135q101 0 193 35t164 99t114.5 164.5t42.5 222.5q0 120 -43 219.5t-114.5 164t-163.5 99.5t-193 35h-135v-1039z" />
<glyph unicode="E" horiz-adv-x="1247" d="M182 0v1499h959v-231h-686v-389h551v-230h-551v-420h714v-229h-987z" />
<glyph unicode="F" horiz-adv-x="1230" d="M182 0v1499h985v-231h-712v-404h575v-229h-575v-635h-273z" />
<glyph unicode="G" horiz-adv-x="1533" d="M92 752q0 159 57.5 301t157 244.5t241 162.5t302.5 60q159 0 299.5 -60t230.5 -145l-184 -156q-171 123 -350 123q-139 0 -250 -71t-171 -191.5t-60 -267.5q0 -111 32.5 -209t91 -172t148 -117t197.5 -43q180 0 313 115v260h-246v219h494v-805h-230l-6 102 q-152 -122 -366 -122q-150 0 -281 60.5t-223 164.5t-144.5 246t-52.5 301z" />
<glyph unicode="H" horiz-adv-x="1523" d="M182 0v1499h273v-620h614v620h272v-1499h-272v649h-614v-649h-273z" />
<glyph unicode="I" horiz-adv-x="661" d="M195 0v1499h272v-1499h-272z" />
<glyph unicode="J" horiz-adv-x="1071" d="M41 406q0 9 1 27.5t1 27.5h254v-66q0 -71 48 -120.5t118 -49.5t118 49.5t48 120.5v1104h262v-1028q0 -100 -28 -188.5t-80 -156t-133 -107t-181 -39.5q-183 0 -305.5 123.5t-122.5 302.5z" />
<glyph unicode="K" horiz-adv-x="1415" d="M182 0v1499h273v-819l635 819h319l-524 -625l551 -874h-312l-409 672l-260 -312v-360h-273z" />
<glyph unicode="L" horiz-adv-x="1138" d="M182 0v1499h273v-1270h655v-229h-928z" />
<glyph unicode="M" horiz-adv-x="1875" d="M180 0v1499h287l475 -987l467 987h287v-1499h-266v1044l-400 -858h-192l-392 858v-1044h-266z" />
<glyph unicode="N" horiz-adv-x="1572" d="M182 0v1499h238l706 -1048v1048h265v-1499h-236l-706 1053v-1053h-267z" />
<glyph unicode="O" horiz-adv-x="1671" d="M92 748q0 160 55 302t152 245.5t236.5 164t300.5 60.5q214 0 385 -103t264.5 -279t93.5 -390q0 -213 -93.5 -388t-264.5 -277.5t-385 -102.5q-161 0 -300.5 60t-236.5 163t-152 244.5t-55 300.5zM365 748q0 -147 58 -269.5t166.5 -196t246.5 -73.5t246.5 73.5t166.5 196 t58 269.5q0 148 -58 271t-166.5 196t-246.5 73t-246.5 -73t-166.5 -196t-58 -271z" />
<glyph unicode="P" horiz-adv-x="1320" d="M182 0v1499h557q242 0 377 -132t135 -335q0 -212 -146 -348.5t-400 -136.5h-250v-547h-273zM455 766h227q145 0 221 70.5t76 183.5q0 111 -76.5 179.5t-226.5 68.5h-221v-502z" />
<glyph unicode="Q" horiz-adv-x="1671" d="M92 748q0 160 55 302t152 245.5t236.5 164t300.5 60.5q214 0 385 -103t264.5 -279t93.5 -390q0 -165 -57 -309t-162 -249l121 -118l-183 -183l-153 154q-141 -63 -309 -63q-161 0 -300.5 60t-236.5 163t-152 244.5t-55 300.5zM365 748q0 -147 58 -269.5t166.5 -196 t246.5 -73.5q63 0 125 16l-123 125l182 182l160 -161q127 152 127 377q0 148 -58 271t-166.5 196t-246.5 73t-246.5 -73t-166.5 -196t-58 -271z" />
<glyph unicode="R" horiz-adv-x="1376" d="M182 0v1499h553q232 0 379.5 -126.5t147.5 -319.5q0 -286 -293 -424l385 -629h-310l-337 571h-252v-571h-273zM455 795h223q147 0 228 67.5t81 177.5q0 108 -81 168t-228 60h-223v-473z" />
<glyph unicode="S" horiz-adv-x="1239" d="M61 184l197 183q67 -66 168 -111t207 -45q108 0 189 58.5t81 150.5q0 51 -27.5 89.5t-73.5 64t-105.5 46t-126 40.5t-132.5 42.5t-125.5 56t-105.5 77.5t-73.5 111.5t-27.5 152.5q0 194 142 307t373 113q142 0 282 -55.5t213 -125.5l-188 -161q-59 42 -143.5 73 t-172.5 31q-101 0 -172 -43t-71 -115q0 -49 27.5 -87t74.5 -63t107.5 -46.5t128 -42t134.5 -44t127.5 -59t107.5 -80.5t74.5 -113.5t27.5 -154.5q0 -140 -79.5 -245.5t-201 -157t-260.5 -51.5q-341 0 -576 204z" />
<glyph unicode="T" horiz-adv-x="1251" d="M41 1268v231h1163v-231h-444v-1268h-273v1268h-446z" />
<glyph unicode="U" horiz-adv-x="1456" d="M178 512v987h273v-997q0 -130 74.5 -210.5t201.5 -80.5q131 0 205 76.5t74 214.5v997h272v-987q0 -154 -72 -276t-198 -189t-281 -67q-154 0 -279.5 67t-197.5 189t-72 276z" />
<glyph unicode="V" horiz-adv-x="1417" d="M41 1499h283l389 -1147l385 1147h278l-545 -1499h-247z" />
<glyph unicode="W" horiz-adv-x="2138" d="M41 1499h283l389 -1147l227 658l-178 489h262l410 -1147l385 1147h278l-543 -1499h-237l-256 713l-246 -713h-227z" />
<glyph unicode="X" horiz-adv-x="1368" d="M8 1499h301l375 -536l338 536h297l-485 -749l526 -750h-299l-381 541l-361 -541h-294l503 758z" />
<glyph unicode="Y" horiz-adv-x="1316" d="M33 1499h293l333 -653l334 653h291l-489 -897v-602h-271v600z" />
<glyph unicode="Z" horiz-adv-x="1259" d="M59 0l697 1268h-658v231h1069l-686 -1270h715v-229h-1137z" />
<glyph unicode="[" horiz-adv-x="768" d="M203 -471v2068h524v-161h-278v-1745h278v-162h-524z" />
<glyph unicode="\" horiz-adv-x="1024" d="M0 1597h221l803 -1699h-221z" />
<glyph unicode="]" horiz-adv-x="768" d="M41 -309h278v1745h-278v161h524v-2068h-524v162z" />
<glyph unicode="^" horiz-adv-x="720" d="M61 1044l162 504h273l163 -504h-176l-123 345l-122 -345h-177z" />
<glyph unicode="_" horiz-adv-x="1363" d="M209 -145h944v-191h-944v191z" />
<glyph unicode="`" horiz-adv-x="485" d="M41 1577h270l133 -289h-247z" />
<glyph unicode="a" horiz-adv-x="1331" d="M102 565q0 161 68 295t186.5 211.5t261.5 77.5q108 0 180 -37t134 -113v129h250v-1128h-250v139q-62 -80 -139.5 -119.5t-184.5 -39.5q-142 0 -258.5 78t-182 212t-65.5 295zM348 565q0 -147 80 -250.5t213 -103.5q93 0 161.5 50t101 129t32.5 175q0 147 -81 252 t-214 105q-132 0 -212.5 -105t-80.5 -252z" />
<glyph unicode="b" horiz-adv-x="1333" d="M152 0v1597h256v-606q113 158 327 158q139 0 253 -78t178.5 -212t64.5 -294q0 -161 -65.5 -295t-182.5 -212t-262 -78q-112 0 -186 43t-129 124v-147h-254zM397 565q0 -96 32.5 -175t101 -129t161.5 -50q132 0 211.5 103.5t79.5 250.5q0 146 -80 251.5t-211 105.5 q-133 0 -214 -105.5t-81 -251.5z" />
<glyph unicode="c" horiz-adv-x="1093" d="M102 565q0 162 67 294.5t192 211t284 78.5q257 0 420 -188l-180 -134q-117 86 -240 86q-135 0 -216 -101.5t-81 -246.5q0 -147 81 -249.5t216 -102.5q134 0 236 86l192 -137q-76 -82 -188 -132t-240 -50q-159 0 -284 78t-192 211t-67 296z" />
<glyph unicode="d" horiz-adv-x="1333" d="M102 565q0 120 39.5 228.5t107 186.5t163 123.5t202.5 45.5q200 0 312 -143v591h256v-1597h-246v154q-121 -174 -332 -174q-142 0 -257.5 78t-180 212t-64.5 295zM348 565q0 -147 80 -250.5t213 -103.5q93 0 161.5 50t101 129t32.5 175q0 147 -81 252t-214 105 q-132 0 -212.5 -105t-80.5 -252z" />
<glyph unicode="e" horiz-adv-x="1236" d="M102 565q0 165 68 298.5t188.5 209.5t268.5 76q157 0 274.5 -81t176.5 -213.5t59 -295.5q0 -33 -4 -61h-781q17 -142 94 -216.5t207 -74.5q165 0 271 94l200 -106q-84 -96 -205.5 -155.5t-275.5 -59.5q-168 0 -291.5 75t-186.5 206.5t-63 303.5zM360 668h517 q-19 114 -83 186t-171 72q-102 0 -170.5 -70.5t-92.5 -187.5z" />
<glyph unicode="f" horiz-adv-x="700" d="M37 924v204h178v152q0 326 340 326q112 0 211 -41l-45 -191q-110 23 -133 23q-69 0 -93 -31t-24 -100v-138h236v-204h-236v-924h-256v924h-178z" />
<glyph unicode="g" horiz-adv-x="1343" d="M113 565q0 120 39.5 228.5t107 186.5t163 123.5t202.5 45.5q199 0 311 -143v122h258v-1036q0 -170 -74.5 -303t-204.5 -205.5t-292 -72.5q-136 0 -258.5 51t-196.5 137l180 151q43 -45 119 -77.5t156 -32.5q143 0 233 101t90 263v50q-121 -174 -332 -174q-142 0 -257 78 t-179.5 212t-64.5 295zM358 565q0 -147 80 -250.5t213 -103.5q93 0 161.5 50t101 129t32.5 175q0 147 -81 252t-214 105q-132 0 -212.5 -105t-80.5 -252z" />
<glyph unicode="h" horiz-adv-x="1247" d="M150 0v1597h256v-651q78 97 172 149t192 52q150 0 239 -95t89 -257v-795h-258v752q0 74 -34.5 118.5t-100.5 44.5q-65 0 -143 -46t-156 -152v-717h-256z" />
<glyph unicode="i" horiz-adv-x="581" d="M150 1415q0 60 40.5 102t100.5 42t101.5 -42t41.5 -102t-41.5 -100.5t-101.5 -40.5t-100.5 40.5t-40.5 100.5zM164 0v1128h256v-1128h-256z" />
<glyph unicode="j" horiz-adv-x="557" d="M-12 -293q42 17 66 31t46.5 37.5t32.5 58.5t10 86v1208h258v-1234q0 -58 -11 -105t-35.5 -83t-53 -62.5t-74.5 -49.5t-88.5 -39t-105.5 -36zM129 1415q0 60 41 102t100 42q61 0 102.5 -42t41.5 -102t-41.5 -100.5t-102.5 -40.5q-59 0 -100 40.5t-41 100.5z" />
<glyph unicode="k" horiz-adv-x="1167" d="M150 0v1597h256v-1015l462 546h285l-397 -442l446 -686h-297l-319 498l-180 -201v-297h-256z" />
<glyph unicode="l" horiz-adv-x="577" d="M160 0v1597h256v-1597h-256z" />
<glyph unicode="m" horiz-adv-x="1880" d="M150 0v1128h247v-176q101 113 188.5 155t180.5 42q215 0 285 -207q104 117 193 162t183 45q137 0 220.5 -94t83.5 -240v-815h-256v772q0 60 -30 103t-85 43q-118 0 -291 -205v-713h-256v772q0 60 -30 103t-85 43q-24 0 -44 -4.5t-57 -22t-86 -62.5t-105 -116v-713h-256z " />
<glyph unicode="n" horiz-adv-x="1253" d="M150 0v1128h245v-182q78 98 178.5 150.5t202.5 52.5q150 0 239 -96t89 -258v-795h-258v760q0 73 -35.5 115.5t-101.5 42.5t-145.5 -47.5t-157.5 -153.5v-717h-256z" />
<glyph unicode="o" horiz-adv-x="1286" d="M102 565q0 162 66.5 294.5t191 211t283.5 78.5t283.5 -78.5t191 -211t66.5 -294.5q0 -163 -66.5 -295.5t-191 -211t-283.5 -78.5t-283.5 78.5t-191 211t-66.5 295.5zM348 565q0 -148 79.5 -250t215.5 -102q91 0 158.5 49t101 128t33.5 175q0 146 -78.5 247t-214.5 101 t-215.5 -101t-79.5 -247z" />
<glyph unicode="p" horiz-adv-x="1343" d="M152 -471v1599h254v-145q117 166 331 166q140 0 256 -77.5t182 -211t66 -293.5q0 -161 -66.5 -295.5t-183.5 -213t-258 -78.5q-209 0 -325 167v-618h-256zM397 567q0 -96 33.5 -175.5t103 -130t162.5 -50.5q132 0 215.5 105t83.5 251q0 144 -84 249.5t-215 105.5 q-90 0 -159.5 -50.5t-104.5 -130.5t-35 -174z" />
<glyph unicode="q" horiz-adv-x="1363" d="M102 559q0 160 74 296t202 215t279 79q104 0 174.5 -36.5t137.5 -111.5v127h245v-1599h-256v602q-124 -149 -331 -149q-138 0 -258.5 75.5t-193.5 209t-73 292.5zM350 559q0 -143 88 -248.5t221 -105.5q139 0 223.5 104t84.5 250t-86.5 252.5t-221.5 106.5 q-133 0 -221 -107t-88 -252z" />
<glyph unicode="r" horiz-adv-x="860" d="M150 0v1128h247v-217q79 115 167.5 176.5t178.5 61.5q59 0 93 -12v-250q-54 8 -99 8q-106 0 -184 -60.5t-147 -168.5v-666h-256z" />
<glyph unicode="s" horiz-adv-x="1093" d="M43 139l176 148q138 -86 330 -86q56 0 105.5 13t84.5 43t35 73q0 41 -29.5 68t-78 40t-110.5 26t-127 23t-127 34t-110.5 57.5t-78 94t-29.5 142.5q0 157 126.5 245.5t332.5 88.5q129 0 248.5 -39t199.5 -106l-166 -152q-156 76 -295 76q-83 0 -142.5 -24t-59.5 -77 q0 -37 30 -62.5t79 -38.5t112 -26.5t128 -24.5t128 -35t112 -55.5t79 -88t30 -131.5q0 -180 -136 -282.5t-358 -102.5q-163 0 -297 52.5t-192 106.5z" />
<glyph unicode="t" horiz-adv-x="724" d="M37 924v204h190v275h258v-275h209v-204h-209v-924h-258v924h-190z" />
<glyph unicode="u" horiz-adv-x="1228" d="M150 332v796h258v-751q0 -75 35 -120.5t100 -45.5q137 0 284 201v716h256v-1128h-245v180q-162 -200 -361 -200q-150 0 -238.5 95t-88.5 257z" />
<glyph unicode="v" horiz-adv-x="1169" d="M49 1128h270l269 -802l268 802h264l-422 -1128h-227z" />
<glyph unicode="w" horiz-adv-x="1773" d="M51 1128h268l261 -804l192 540l-96 264h270l258 -809l260 809h265l-406 -1128h-242l-204 580l-209 -580h-213z" />
<glyph unicode="x" horiz-adv-x="1150" d="M39 1128h278l261 -374l245 374h275l-383 -559l407 -569h-280l-264 381l-252 -381h-273l385 563z" />
<glyph unicode="y" horiz-adv-x="1171" d="M49 1128h270l273 -751l264 751h266l-481 -1259q-95 -245 -248 -361l-178 142q40 42 65.5 70.5t67 89t64.5 118.5l59 148z" />
<glyph unicode="z" horiz-adv-x="1046" d="M45 0l578 924h-547v204h942l-578 -925h580v-203h-975z" />
<glyph unicode="{" horiz-adv-x="800" d="M145 496v211q45 0 77 14t50.5 36.5t28.5 61.5t13 78.5t3 99.5v209q0 204 98 308t314 104v-176q-166 0 -166 -275v-188q0 -143 -52.5 -239t-127.5 -140q78 -45 129 -150t51 -260v-192q0 -136 39 -205t127 -69v-177q-208 0 -310 98.5t-102 282.5v353q0 114 -41.5 164.5 t-130.5 50.5z" />
<glyph unicode="|" horiz-adv-x="903" d="M348 -471v2068h207v-2068h-207z" />
<glyph unicode="}" horiz-adv-x="800" d="M72 -276q47 0 78 12t48.5 30.5t26.5 57.5t11 74.5t2 99.5v192q0 155 51 260t129 150q-75 44 -127.5 140t-52.5 239v188q0 136 -39 205.5t-127 69.5v176q217 0 314 -105t97 -307v-209q0 -159 34 -224.5t138 -65.5v-211q-90 0 -131 -51t-41 -164v-353q0 -184 -102 -282.5 t-309 -98.5v177z" />
<glyph unicode="~" horiz-adv-x="1329" d="M199 532q2 115 72 195t180 80q53 0 141.5 -29.5t167.5 -58.5t110 -29q38 0 59 26t21 66h180q-2 -111 -70.5 -191.5t-176.5 -80.5q-61 0 -148 29t-161 58.5t-103 29.5q-80 0 -84 -95h-188z" />
<glyph unicode="&#xa1;" horiz-adv-x="716" d="M190 1352q0 70 49.5 119t118.5 49q71 0 120.5 -49t49.5 -119t-49.5 -119t-120.5 -49q-69 0 -118.5 49t-49.5 119zM213 0l57 977h174l56 -977h-287z" />
<glyph unicode="&#xa2;" d="M164 770q0 213 114 370t304 199v160h262v-162q160 -37 282 -172l-180 -133q-117 86 -239 86q-135 0 -216 -101.5t-81 -246.5q0 -147 81 -249.5t216 -102.5q133 0 235 86l193 -137q-116 -125 -291 -168v-199h-262v199q-190 42 -304 199.5t-114 371.5z" />
<glyph unicode="&#xa3;" d="M125 0v209h180v436h-180v207h180v240q0 194 109 311t323 117q126 0 222 -41t155 -107l-164 -158q-40 34 -95 56t-107 22q-86 0 -136.5 -56t-50.5 -165v-219h332v-207h-332v-436h545v-209h-981z" />
<glyph unicode="&#xa4;" horiz-adv-x="1193" d="M113 317l159 162q-102 120 -102 277q0 148 92 264l-149 151l57 58l149 -150q115 103 279 103q161 0 276 -103l150 150l57 -58l-149 -151q92 -116 92 -264q0 -157 -102 -277l159 -162l-57 -57l-162 162q-119 -92 -264 -92q-147 0 -266 92l-162 -162zM285 756 q0 -130 92.5 -225t220.5 -95t220.5 95t92.5 225q0 129 -92 223t-221 94t-221 -94t-92 -223z" />
<glyph unicode="&#xa5;" d="M37 1499h272l318 -561l307 561h272l-356 -625h244v-196h-334v-189h334v-196h-334v-197q0 -65 -43 -96h-170q-43 31 -43 96v197h-344v196h344v189h-344v196h248z" />
<glyph unicode="&#xa6;" horiz-adv-x="903" d="M348 354h207v-731q0 -67 -43 -104q-87 0 -164 43v792zM348 770v733q0 69 41 105q89 0 166 -43v-795h-207z" />
<glyph unicode="&#xa7;" d="M82 -129l156 164q117 -90 207 -123t173 -33q84 0 153 48t69 110q0 53 -41.5 91t-107 61.5t-145.5 44.5t-160 47.5t-145.5 63t-107 99t-41.5 146.5q0 104 63 177.5t171 113.5q-183 93 -183 276q0 161 133 262t336 101q143 0 267.5 -45t201.5 -132l-166 -137 q-56 56 -140 85.5t-177 29.5q-78 0 -139.5 -40t-61.5 -95q0 -47 42 -82t109 -58.5t148 -45.5t162 -50.5t148 -65.5t109 -98.5t42 -142.5q0 -103 -58 -181t-159 -126q166 -95 166 -260q0 -172 -143.5 -289t-360.5 -117q-176 0 -308 58t-212 143zM346 633q0 -19 6.5 -35.5 t22 -31.5t31 -27t44.5 -25.5t50.5 -22.5t62 -21.5t65 -20t72.5 -21.5q78 15 134.5 60.5t56.5 107.5q0 38 -21.5 67.5t-69 52.5t-95 38.5t-127.5 36.5q-47 -3 -98 -21t-92.5 -54.5t-41.5 -82.5z" />
<glyph unicode="&#xa8;" horiz-adv-x="774" d="M61 1434q0 57 40 97t98 40q57 0 97 -40t40 -97q0 -58 -40 -98t-97 -40q-59 0 -98.5 40t-39.5 98zM438 1434q0 57 40 97t97 40q58 0 98 -40t40 -97q0 -58 -39.5 -98t-98.5 -40q-57 0 -97 40t-40 98z" />
<glyph unicode="&#xa9;" horiz-adv-x="1486" d="M145 924q0 122 47.5 232t127.5 190t190.5 127t232.5 47t232.5 -47t190.5 -127t127.5 -190t47.5 -232t-47.5 -233t-127.5 -191t-190.5 -127t-232.5 -47t-232.5 47t-190.5 127t-127.5 191t-47.5 233zM295 924q0 -186 131 -317.5t317 -131.5t317.5 131.5t131.5 317.5 q0 121 -60 223.5t-163.5 162.5t-225.5 60t-225 -60t-163 -162.5t-60 -223.5zM487 924q0 106 75 181t181 75q64 0 119 -30.5t88 -82.5l-123 -74q-32 37 -82 37q-44 0 -76 -31t-32 -75q0 -46 31.5 -77.5t76.5 -31.5q52 0 82 41l123 -78q-34 -51 -88.5 -80.5t-118.5 -29.5 q-106 0 -181 75t-75 181z" />
<glyph unicode="&#xaa;" horiz-adv-x="903" d="M109 1153q0 146 94 249t227 103q67 0 107 -14t75 -47v55h166v-696h-166v67q-74 -71 -186 -71q-137 0 -227 102t-90 252zM125 508v174h653v-174h-653zM291 1153q0 -83 41 -140t110 -57q73 0 114.5 56.5t41.5 140.5q0 81 -42.5 138t-113.5 57q-69 0 -110 -56.5t-41 -138.5z " />
<glyph unicode="&#xab;" horiz-adv-x="1220" d="M96 586l355 461h170l-232 -461l232 -463h-170zM567 586l355 461h170l-232 -461l232 -463h-170z" />
<glyph unicode="&#xac;" horiz-adv-x="1218" d="M199 547v209h905v-572h-207v363h-698z" />
<glyph unicode="&#xad;" horiz-adv-x="0" />
<glyph unicode="&#xae;" horiz-adv-x="1486" d="M145 924q0 122 47.5 232t127.5 190t190.5 127t232.5 47t232.5 -47t190.5 -127t127.5 -190t47.5 -232t-47.5 -233t-127.5 -191t-190.5 -127t-232.5 -47t-232.5 47t-190.5 127t-127.5 191t-47.5 233zM295 924q0 -186 131 -317.5t317 -131.5t317.5 131.5t131.5 317.5 q0 121 -60 223.5t-163.5 162.5t-225.5 60t-225 -60t-163 -162.5t-60 -223.5zM524 694v459h269q89 0 134.5 -40.5t45.5 -90.5q0 -48 -28 -87.5t-97 -47.5l176 -193h-170l-147 168h-48v-168h-135zM659 961h93q84 0 84 51q0 41 -84 41h-93v-92z" />
<glyph unicode="&#xaf;" horiz-adv-x="854" d="M82 1364v184h690v-184h-690z" />
<glyph unicode="&#xb0;" horiz-adv-x="1069" d="M125 1104q0 167 121 286t289 119q169 0 289 -119t120 -286q0 -168 -120 -287t-289 -119q-168 0 -289 119t-121 287zM326 1104q0 -88 61.5 -151.5t147.5 -63.5q87 0 147.5 63.5t60.5 151.5q0 87 -60.5 149t-147.5 62q-86 0 -147.5 -62.5t-61.5 -148.5z" />
<glyph unicode="&#xb1;" d="M170 0v209h905v-209h-905zM170 608v209h346v352h209v-352h350v-209h-350v-362h-209v362h-346z" />
<glyph unicode="&#xb2;" horiz-adv-x="819" d="M-16 590l430 493q71 78 71 136q0 45 -33 78.5t-83 33.5q-87 0 -152 -127l-194 64q39 105 141 173t213 68q148 0 242 -77t94 -207q0 -70 -31.5 -124.5t-103.5 -135.5l-177 -201h353v-174h-770z" />
<glyph unicode="&#xb3;" horiz-adv-x="819" d="M25 743l141 125q31 -45 88 -78.5t111 -33.5q62 0 109.5 38.5t47.5 100.5q0 68 -51 103.5t-131 35.5h-86l-41 78l182 219h-299v168h666l-264 -313q113 -20 179 -91t66 -192q0 -100 -54.5 -175.5t-139.5 -112.5t-184 -37q-111 0 -200 47.5t-140 117.5z" />
<glyph unicode="&#xb4;" horiz-adv-x="485" d="M41 1288l133 289h270l-155 -289h-248z" />
<glyph unicode="&#xb6;" d="M51 1075q0 175 124.5 299.5t301.5 124.5h731v-127h-170v-1843h-151v1843h-258v-1843h-152v1120q-177 0 -301.5 124.5t-124.5 301.5z" />
<glyph unicode="&#xb7;" horiz-adv-x="516" d="M90 770q0 70 49 119t119 49t119 -49t49 -119t-49 -119t-119 -49t-119 49t-49 119z" />
<glyph unicode="&#xb8;" horiz-adv-x="638" d="M82 -436q68 97 82 117q51 -48 137 -48q44 0 68 23.5t24 52.5q0 38 -33 55.5t-120 20.5h-101v129q233 0 325.5 -44.5t92.5 -148.5q0 -107 -72.5 -160t-183.5 -53q-128 0 -219 56z" />
<glyph unicode="&#xb9;" horiz-adv-x="819" d="M113 1163v142h32q97 0 154 52.5t57 141.5h201v-909h-217v573h-227z" />
<glyph unicode="&#xba;" horiz-adv-x="886" d="M109 1147q0 151 93 252.5t244 101.5q148 0 240 -101.5t92 -252.5t-92 -252.5t-240 -101.5q-151 0 -244 101.5t-93 252.5zM125 508v174h641v-174h-641zM291 1147q0 -82 41.5 -138.5t113.5 -56.5q68 0 110 57t42 138q0 82 -41.5 137t-110.5 55q-73 0 -114 -54.5t-41 -137.5 z" />
<glyph unicode="&#xbb;" horiz-adv-x="1220" d="M129 123l231 463l-231 461h170l354 -461l-354 -463h-170zM600 123l231 463l-231 461h170l354 -461l-354 -463h-170z" />
<glyph unicode="&#xbc;" horiz-adv-x="1957" d="M113 1163v142h32q97 0 154 52.5t57 141.5h201v-909h-217v573h-227zM469 0l750 1499h231l-750 -1499h-231zM1184 176v141l233 588h228l-226 -555h221v318h215v-672h-217v180h-454z" />
<glyph unicode="&#xbd;" horiz-adv-x="1957" d="M113 1163v142h32q97 0 154 52.5t57 141.5h201v-909h-217v573h-227zM428 0l750 1499h231l-750 -1499h-231zM1118 -4l430 493q72 79 72 136q0 45 -33.5 78.5t-83.5 33.5q-86 0 -151 -127l-195 64q39 105 141 173t213 68q148 0 242 -77t94 -207q0 -70 -31.5 -124.5 t-103.5 -135.5l-176 -201h352v-174h-770z" />
<glyph unicode="&#xbe;" horiz-adv-x="1957" d="M45 743l141 125q31 -45 88 -78.5t111 -33.5q62 0 110 38.5t48 100.5q0 68 -51 103.5t-132 35.5h-86l-41 78l183 219h-299v168h665l-264 -313q113 -20 179.5 -91t66.5 -192q0 -75 -31.5 -137.5t-85 -103t-121 -62.5t-141.5 -22q-111 0 -200 47.5t-140 117.5zM510 0 l750 1499h231l-750 -1499h-231zM1184 176v141l233 588h228l-226 -555h221v318h215v-672h-217v180h-454z" />
<glyph unicode="&#xbf;" horiz-adv-x="1093" d="M141 397q0 82 27.5 153t70 126.5t87.5 106t88 115t63 130.5h248q-17 -92 -55.5 -170t-81 -130t-82.5 -100.5t-66 -104.5t-26 -120q0 -98 61.5 -143t159.5 -45q82 0 170.5 37.5t150.5 83.5l123 -195q-59 -57 -189 -109t-261 -52q-105 0 -192.5 25t-154 74.5t-104 130.5 t-37.5 187zM432 1352q0 70 49 119t119 49q69 0 118.5 -49t49.5 -119t-49.5 -119t-118.5 -49q-70 0 -119 49t-49 119z" />
<glyph unicode="&#xc0;" horiz-adv-x="1413" d="M39 0l547 1499h243l545 -1499h-278l-131 385h-521l-129 -385h-276zM412 1948h270l133 -289h-248zM518 598h375l-188 557z" />
<glyph unicode="&#xc1;" horiz-adv-x="1413" d="M39 0l547 1499h243l545 -1499h-278l-131 385h-521l-129 -385h-276zM518 598h375l-188 557zM575 1659l134 289h270l-156 -289h-248z" />
<glyph unicode="&#xc2;" horiz-adv-x="1413" d="M39 0l547 1499h243l545 -1499h-278l-131 385h-521l-129 -385h-276zM395 1659l172 289h279l172 -289h-207l-104 164l-105 -164h-207zM518 598h375l-188 557z" />
<glyph unicode="&#xc3;" horiz-adv-x="1413" d="M39 0l547 1499h243l545 -1499h-278l-131 385h-521l-129 -385h-276zM379 1749q10 71 70.5 128.5t144.5 57.5q44 0 93 -25t90.5 -50t68.5 -25t57.5 29.5t36.5 60.5l92 -67q-8 -72 -68 -128.5t-145 -56.5q-49 0 -96.5 25.5t-85.5 50.5t-64 25q-29 0 -59.5 -30t-38.5 -61 q-38 23 -96 66zM518 598h375l-188 557z" />
<glyph unicode="&#xc4;" horiz-adv-x="1413" d="M39 0l547 1499h243l545 -1499h-278l-131 385h-521l-129 -385h-276zM381 1804q0 57 39.5 97.5t97.5 40.5q57 0 97 -40.5t40 -97.5q0 -58 -40 -97.5t-97 -39.5q-58 0 -97.5 39.5t-39.5 97.5zM518 598h375l-188 557zM758 1804q0 57 40 97.5t97 40.5q58 0 97.5 -40.5 t39.5 -97.5q0 -58 -39 -97.5t-98 -39.5q-57 0 -97 39.5t-40 97.5z" />
<glyph unicode="&#xc5;" horiz-adv-x="1413" d="M39 0l455 1249q-88 88 -88 219q0 129 89 218.5t218 89.5t219 -89.5t90 -218.5q0 -66 -26.5 -125.5t-71.5 -101.5l450 -1241h-278l-131 385h-521l-129 -385h-276zM518 598h375l-188 557zM582 1473q0 -54 37.5 -93t89.5 -39q54 0 91.5 39t37.5 93q0 52 -37.5 87t-91.5 35 q-53 0 -90 -35t-37 -87z" />
<glyph unicode="&#xc6;" horiz-adv-x="1976" d="M31 0l590 1499h1249v-231h-651v-389h534v-230h-534v-420h698v-229h-971v406h-487l-152 -406h-276zM537 618h409v650h-168z" />
<glyph unicode="&#xc7;" horiz-adv-x="1380" d="M92 748q0 160 55 302t152 245.5t236.5 164t300.5 60.5q140 0 267.5 -56t215.5 -139l-184 -156q-45 32 -79.5 52.5t-95.5 40.5t-124 20q-137 0 -245.5 -71.5t-167 -193t-58.5 -269.5q0 -147 59 -268.5t167.5 -193t244.5 -71.5q159 0 319 125l205 -131q-92 -97 -232 -163 t-292 -66q-161 0 -300.5 60t-236.5 163t-152 244.5t-55 300.5zM453 -436q68 97 82 117q51 -48 137 -48q44 0 68 23.5t24 52.5q0 38 -33.5 55.5t-120.5 20.5h-100v129q233 0 325.5 -44.5t92.5 -148.5q0 -107 -72.5 -160t-183.5 -53q-128 0 -219 56z" />
<glyph unicode="&#xc8;" horiz-adv-x="1247" d="M182 0v1499h959v-231h-686v-389h551v-230h-551v-420h714v-229h-987zM422 1948h270l133 -289h-247z" />
<glyph unicode="&#xc9;" horiz-adv-x="1247" d="M182 0v1499h959v-231h-686v-389h551v-230h-551v-420h714v-229h-987zM467 1659l133 289h270l-155 -289h-248z" />
<glyph unicode="&#xca;" horiz-adv-x="1247" d="M182 0v1499h959v-231h-686v-389h551v-230h-551v-420h714v-229h-987zM311 1659l172 289h279l172 -289h-207l-104 164l-105 -164h-207z" />
<glyph unicode="&#xcb;" horiz-adv-x="1247" d="M182 0v1499h959v-231h-686v-389h551v-230h-551v-420h714v-229h-987zM297 1804q0 57 39.5 97.5t97.5 40.5q57 0 97 -40.5t40 -97.5q0 -58 -40 -97.5t-97 -39.5q-58 0 -97.5 39.5t-39.5 97.5zM674 1804q0 57 40 97.5t97 40.5q58 0 97.5 -40.5t39.5 -97.5q0 -58 -39 -97.5 t-98 -39.5q-57 0 -97 39.5t-40 97.5z" />
<glyph unicode="&#xcc;" horiz-adv-x="661" d="M129 1948h270l133 -289h-247zM195 0v1499h272v-1499h-272z" />
<glyph unicode="&#xcd;" horiz-adv-x="661" d="M129 1659l133 289h270l-155 -289h-248zM195 0v1499h272v-1499h-272z" />
<glyph unicode="&#xce;" horiz-adv-x="661" d="M20 1659l173 289h278l172 -289h-207l-104 164l-105 -164h-207zM195 0v1499h272v-1499h-272z" />
<glyph unicode="&#xcf;" horiz-adv-x="661" d="M6 1804q0 57 39.5 97.5t97.5 40.5q57 0 97.5 -40.5t40.5 -97.5q0 -58 -40.5 -97.5t-97.5 -39.5q-59 0 -98 39.5t-39 97.5zM195 0v1499h272v-1499h-272zM383 1804q0 57 40 97.5t97 40.5q58 0 97.5 -40.5t39.5 -97.5q0 -58 -39.5 -97.5t-97.5 -39.5q-57 0 -97 39.5 t-40 97.5z" />
<glyph unicode="&#xd0;" horiz-adv-x="1495" d="M59 666v213h123v620h410q219 0 399.5 -94.5t285.5 -266.5t105 -388q0 -153 -61 -291.5t-166 -239t-252 -160t-311 -59.5h-410v666h-123zM455 229h135q101 0 193 35t164 99t114.5 164.5t42.5 222.5q0 120 -43 219.5t-114.5 164t-163.5 99.5t-193 35h-135v-389h256v-213 h-256v-437z" />
<glyph unicode="&#xd1;" horiz-adv-x="1572" d="M182 0v1499h238l706 -1048v1048h265v-1499h-236l-706 1053v-1053h-267zM459 1749q10 71 70.5 128.5t144.5 57.5q34 0 73 -15.5t67 -34.5t59 -34.5t53 -15.5q27 0 57.5 29.5t36.5 60.5l92 -67q-8 -72 -68 -128.5t-145 -56.5q-49 0 -96.5 25.5t-85.5 50.5t-64 25 q-29 0 -59.5 -30t-38.5 -61q-38 23 -96 66z" />
<glyph unicode="&#xd2;" horiz-adv-x="1671" d="M92 748q0 160 55 302t152 245.5t236.5 164t300.5 60.5q214 0 385 -103t264.5 -279t93.5 -390q0 -213 -93.5 -388t-264.5 -277.5t-385 -102.5q-161 0 -300.5 60t-236.5 163t-152 244.5t-55 300.5zM365 748q0 -147 58 -269.5t166.5 -196t246.5 -73.5t246.5 73.5t166.5 196 t58 269.5q0 148 -58 271t-166.5 196t-246.5 73t-246.5 -73t-166.5 -196t-58 -271zM557 1948h270l134 -289h-248z" />
<glyph unicode="&#xd3;" horiz-adv-x="1671" d="M92 748q0 160 55 302t152 245.5t236.5 164t300.5 60.5q214 0 385 -103t264.5 -279t93.5 -390q0 -213 -93.5 -388t-264.5 -277.5t-385 -102.5q-161 0 -300.5 60t-236.5 163t-152 244.5t-55 300.5zM365 748q0 -147 58 -269.5t166.5 -196t246.5 -73.5t246.5 73.5t166.5 196 t58 269.5q0 148 -58 271t-166.5 196t-246.5 73t-246.5 -73t-166.5 -196t-58 -271zM723 1659l133 289h270l-155 -289h-248z" />
<glyph unicode="&#xd4;" horiz-adv-x="1671" d="M92 748q0 160 55 302t152 245.5t236.5 164t300.5 60.5q214 0 385 -103t264.5 -279t93.5 -390q0 -213 -93.5 -388t-264.5 -277.5t-385 -102.5q-161 0 -300.5 60t-236.5 163t-152 244.5t-55 300.5zM365 748q0 -147 58 -269.5t166.5 -196t246.5 -73.5t246.5 73.5t166.5 196 t58 269.5q0 148 -58 271t-166.5 196t-246.5 73t-246.5 -73t-166.5 -196t-58 -271zM524 1659l172 289h279l172 -289h-207l-104 164l-105 -164h-207z" />
<glyph unicode="&#xd5;" horiz-adv-x="1671" d="M92 748q0 160 55 302t152 245.5t236.5 164t300.5 60.5q214 0 385 -103t264.5 -279t93.5 -390q0 -213 -93.5 -388t-264.5 -277.5t-385 -102.5q-161 0 -300.5 60t-236.5 163t-152 244.5t-55 300.5zM365 748q0 -147 58 -269.5t166.5 -196t246.5 -73.5t246.5 73.5t166.5 196 t58 269.5q0 148 -58 271t-166.5 196t-246.5 73t-246.5 -73t-166.5 -196t-58 -271zM508 1749q10 71 70.5 128.5t144.5 57.5q44 0 92.5 -25t90.5 -50t69 -25t57.5 29.5t36.5 60.5l92 -67q-8 -72 -68 -128.5t-145 -56.5q-49 0 -96.5 25.5t-85.5 50.5t-64 25q-29 0 -59.5 -30 t-38.5 -61q-38 23 -96 66z" />
<glyph unicode="&#xd6;" horiz-adv-x="1671" d="M92 748q0 160 55 302t152 245.5t236.5 164t300.5 60.5q214 0 385 -103t264.5 -279t93.5 -390q0 -213 -93.5 -388t-264.5 -277.5t-385 -102.5q-161 0 -300.5 60t-236.5 163t-152 244.5t-55 300.5zM365 748q0 -147 58 -269.5t166.5 -196t246.5 -73.5t246.5 73.5t166.5 196 t58 269.5q0 148 -58 271t-166.5 196t-246.5 73t-246.5 -73t-166.5 -196t-58 -271zM510 1804q0 57 39.5 97.5t97.5 40.5q57 0 97 -40.5t40 -97.5q0 -58 -40 -97.5t-97 -39.5q-59 0 -98 39.5t-39 97.5zM887 1804q0 57 40 97.5t97 40.5q58 0 97.5 -40.5t39.5 -97.5 q0 -58 -39.5 -97.5t-97.5 -39.5q-57 0 -97 39.5t-40 97.5z" />
<glyph unicode="&#xd7;" d="M207 383l270 268l-270 271l145 147l271 -270q39 40 83.5 84.5t99.5 99t85 84.5l147 -147q-113 -111 -268 -269l264 -264l-147 -145l-264 264l-269 -270z" />
<glyph unicode="&#xd8;" horiz-adv-x="1630" d="M113 748q0 161 48.5 302t137.5 245.5t222 164.5t294 60t294 -60t222 -164.5t138 -245.5t49 -302q0 -160 -49 -300.5t-138 -244t-222 -163.5t-294 -60t-294 60t-222 163.5t-137.5 244t-48.5 300.5zM385 748q0 -207 86 -349l580 815q-99 74 -236 74t-236 -74t-146.5 -194.5 t-47.5 -271.5zM580 283q96 -74 235 -74q137 0 236 74t146.5 194t47.5 271q0 202 -88 350z" />
<glyph unicode="&#xd9;" horiz-adv-x="1456" d="M178 512v987h273v-997q0 -130 74.5 -210.5t201.5 -80.5q131 0 205 76.5t74 214.5v997h272v-987q0 -154 -72 -276t-198 -189t-281 -67q-154 0 -279.5 67t-197.5 189t-72 276zM526 1948h271l133 -289h-248z" />
<glyph unicode="&#xda;" horiz-adv-x="1456" d="M178 512v987h273v-997q0 -130 74.5 -210.5t201.5 -80.5q131 0 205 76.5t74 214.5v997h272v-987q0 -154 -72 -276t-198 -189t-281 -67q-154 0 -279.5 67t-197.5 189t-72 276zM526 1659l133 289h271l-156 -289h-248z" />
<glyph unicode="&#xdb;" horiz-adv-x="1456" d="M178 512v987h273v-997q0 -130 74.5 -210.5t201.5 -80.5q131 0 205 76.5t74 214.5v997h272v-987q0 -154 -72 -276t-198 -189t-281 -67q-154 0 -279.5 67t-197.5 189t-72 276zM416 1659l172 289h278l172 -289h-207l-104 164l-104 -164h-207z" />
<glyph unicode="&#xdc;" horiz-adv-x="1456" d="M178 512v987h273v-997q0 -130 74.5 -210.5t201.5 -80.5q131 0 205 76.5t74 214.5v997h272v-987q0 -154 -72 -276t-198 -189t-281 -67q-154 0 -279.5 67t-197.5 189t-72 276zM401 1804q0 57 40 97.5t98 40.5q57 0 97 -40.5t40 -97.5q0 -58 -40 -97.5t-97 -39.5 q-59 0 -98.5 39.5t-39.5 97.5zM778 1804q0 57 40 97.5t97 40.5q58 0 98 -40.5t40 -97.5q0 -58 -39.5 -97.5t-98.5 -39.5q-57 0 -97 39.5t-40 97.5z" />
<glyph unicode="&#xdd;" horiz-adv-x="1316" d="M33 1499h293l333 -653l334 653h291l-489 -897v-602h-271v600zM457 1659l133 289h270l-155 -289h-248z" />
<glyph unicode="&#xde;" horiz-adv-x="1320" d="M182 0v1499h273v-260h284q242 0 377 -132t135 -335q0 -212 -146 -348.5t-400 -136.5h-250v-287h-273zM455 506h227q145 0 221 70.5t76 183.5q0 111 -76.5 179.5t-226.5 68.5h-221v-502z" />
<glyph unicode="&#xdf;" horiz-adv-x="1228" d="M156 0v975q0 534 456 534q207 0 335 -103t128 -284q0 -104 -59 -192t-148 -119q135 -46 210 -145.5t75 -219.5q0 -209 -159 -332.5t-419 -123.5v205h54q107 0 187.5 72t80.5 179q0 106 -79 170t-187 64h-56v194q114 11 179 66t65 147q0 103 -59 159.5t-150 56.5 q-90 0 -144 -53.5t-54 -151.5v-1098h-256z" />
<glyph unicode="&#xe0;" horiz-adv-x="1331" d="M102 565q0 161 68 295t186.5 211.5t261.5 77.5q108 0 180 -37t134 -113v129h250v-1128h-250v139q-62 -80 -139.5 -119.5t-184.5 -39.5q-142 0 -258.5 78t-182 212t-65.5 295zM348 565q0 -147 80 -250.5t213 -103.5q93 0 161.5 50t101 129t32.5 175q0 147 -81 252 t-214 105q-132 0 -212.5 -105t-80.5 -252zM463 1577h270l133 -289h-248z" />
<glyph unicode="&#xe1;" horiz-adv-x="1331" d="M102 565q0 161 68 295t186.5 211.5t261.5 77.5q108 0 180 -37t134 -113v129h250v-1128h-250v139q-62 -80 -139.5 -119.5t-184.5 -39.5q-142 0 -258.5 78t-182 212t-65.5 295zM348 565q0 -147 80 -250.5t213 -103.5q93 0 161.5 50t101 129t32.5 175q0 147 -81 252 t-214 105q-132 0 -212.5 -105t-80.5 -252zM463 1288l133 289h270l-155 -289h-248z" />
<glyph unicode="&#xe2;" horiz-adv-x="1331" d="M102 565q0 161 68 295t186.5 211.5t261.5 77.5q108 0 180 -37t134 -113v129h250v-1128h-250v139q-62 -80 -139.5 -119.5t-184.5 -39.5q-142 0 -258.5 78t-182 212t-65.5 295zM348 565q0 -147 80 -250.5t213 -103.5q93 0 161.5 50t101 129t32.5 175q0 147 -81 252 t-214 105q-132 0 -212.5 -105t-80.5 -252zM354 1288l172 289h279l172 -289h-207l-104 164l-105 -164h-207z" />
<glyph unicode="&#xe3;" horiz-adv-x="1331" d="M102 565q0 161 68 295t186.5 211.5t261.5 77.5q108 0 180 -37t134 -113v129h250v-1128h-250v139q-62 -80 -139.5 -119.5t-184.5 -39.5q-142 0 -258.5 78t-182 212t-65.5 295zM338 1378q10 71 70.5 129t144.5 58q34 0 73 -16t67 -34.5t59 -34.5t53 -16q27 0 57.5 29.5 t36.5 60.5l92 -67q-8 -72 -68 -128t-145 -56q-49 0 -96.5 25t-85.5 50t-64 25q-29 0 -59.5 -29.5t-38.5 -60.5q-46 28 -96 65zM348 565q0 -147 80 -250.5t213 -103.5q93 0 161.5 50t101 129t32.5 175q0 147 -81 252t-214 105q-132 0 -212.5 -105t-80.5 -252z" />
<glyph unicode="&#xe4;" horiz-adv-x="1331" d="M102 565q0 161 68 295t186.5 211.5t261.5 77.5q108 0 180 -37t134 -113v129h250v-1128h-250v139q-62 -80 -139.5 -119.5t-184.5 -39.5q-142 0 -258.5 78t-182 212t-65.5 295zM340 1434q0 57 39.5 97t97.5 40q57 0 97 -40t40 -97q0 -58 -40 -98t-97 -40q-58 0 -97.5 39.5 t-39.5 98.5zM348 565q0 -147 80 -250.5t213 -103.5q93 0 161.5 50t101 129t32.5 175q0 147 -81 252t-214 105q-132 0 -212.5 -105t-80.5 -252zM717 1434q0 57 40 97t97 40q58 0 97.5 -40t39.5 -97q0 -59 -39.5 -98.5t-97.5 -39.5q-57 0 -97 40t-40 98z" />
<glyph unicode="&#xe5;" horiz-adv-x="1331" d="M102 565q0 161 68 295t186.5 211.5t261.5 77.5q108 0 180 -37t134 -113v129h250v-1128h-250v139q-62 -80 -139.5 -119.5t-184.5 -39.5q-142 0 -258.5 78t-182 212t-65.5 295zM348 565q0 -147 80 -250.5t213 -103.5q93 0 161.5 50t101 129t32.5 175q0 147 -81 252 t-214 105q-132 0 -212.5 -105t-80.5 -252zM451 1456q0 89 62 152t151 63t152 -63t63 -152t-63 -151t-152 -62t-151 62t-62 151zM578 1458q0 -35 25.5 -61.5t60.5 -26.5t60.5 26.5t25.5 61.5t-25.5 59.5t-60.5 24.5t-60.5 -24.5t-25.5 -59.5z" />
<glyph unicode="&#xe6;" horiz-adv-x="1851" d="M55 324q0 344 449 344h258q0 264 -230 264q-121 0 -251 -74l-205 107q80 74 202 129t281 55q258 0 354 -160q144 160 359 160q118 0 214.5 -47t159.5 -127.5t96.5 -187t33.5 -228.5q0 -21 -4 -61h-781q17 -142 94 -216.5t207 -74.5q165 0 271 94l200 -106 q-84 -96 -207 -155.5t-276 -59.5q-287 0 -420 215q-72 -102 -179.5 -158.5t-238.5 -56.5q-182 0 -284.5 94t-102.5 250zM305 344q0 -73 54 -115.5t133 -42.5q34 0 70.5 9t72.5 29t64 48.5t45.5 71t17.5 92.5v62h-182q-148 0 -211.5 -34.5t-63.5 -119.5zM999 668h517 q-19 114 -83 186t-171 72q-102 0 -170.5 -70.5t-92.5 -187.5z" />
<glyph unicode="&#xe7;" horiz-adv-x="1093" d="M102 565q0 162 67 294.5t192 211t284 78.5q257 0 420 -188l-180 -134q-117 86 -240 86q-135 0 -216 -101.5t-81 -246.5q0 -147 81 -249.5t216 -102.5q134 0 236 86l192 -137q-76 -82 -188 -132t-240 -50q-159 0 -284 78t-192 211t-67 296zM309 -436q67 97 82 117 q51 -48 137 -48q44 0 68.5 23.5t24.5 52.5q0 38 -33.5 55.5t-120.5 20.5h-100v129q233 0 325 -44.5t92 -148.5q0 -107 -72.5 -160t-183.5 -53q-128 0 -219 56z" />
<glyph unicode="&#xe8;" horiz-adv-x="1236" d="M102 565q0 165 68 298.5t188.5 209.5t268.5 76q157 0 274.5 -81t176.5 -213.5t59 -295.5q0 -33 -4 -61h-781q17 -142 94 -216.5t207 -74.5q165 0 271 94l200 -106q-84 -96 -205.5 -155.5t-275.5 -59.5q-168 0 -291.5 75t-186.5 206.5t-63 303.5zM342 1577h270l133 -289 h-247zM360 668h517q-19 114 -83 186t-171 72q-102 0 -170.5 -70.5t-92.5 -187.5z" />
<glyph unicode="&#xe9;" horiz-adv-x="1236" d="M102 565q0 165 68 298.5t188.5 209.5t268.5 76q157 0 274.5 -81t176.5 -213.5t59 -295.5q0 -33 -4 -61h-781q17 -142 94 -216.5t207 -74.5q165 0 271 94l200 -106q-84 -96 -205.5 -155.5t-275.5 -59.5q-168 0 -291.5 75t-186.5 206.5t-63 303.5zM360 668h517 q-19 114 -83 186t-171 72q-102 0 -170.5 -70.5t-92.5 -187.5zM494 1288l133 289h270l-156 -289h-247z" />
<glyph unicode="&#xea;" horiz-adv-x="1236" d="M102 565q0 165 68 298.5t188.5 209.5t268.5 76q157 0 274.5 -81t176.5 -213.5t59 -295.5q0 -33 -4 -61h-781q17 -142 94 -216.5t207 -74.5q165 0 271 94l200 -106q-84 -96 -205.5 -155.5t-275.5 -59.5q-168 0 -291.5 75t-186.5 206.5t-63 303.5zM307 1288l172 289h279 l172 -289h-207l-105 164l-104 -164h-207zM360 668h517q-19 114 -83 186t-171 72q-102 0 -170.5 -70.5t-92.5 -187.5z" />
<glyph unicode="&#xeb;" horiz-adv-x="1236" d="M102 565q0 165 68 298.5t188.5 209.5t268.5 76q157 0 274.5 -81t176.5 -213.5t59 -295.5q0 -33 -4 -61h-781q17 -142 94 -216.5t207 -74.5q165 0 271 94l200 -106q-84 -96 -205.5 -155.5t-275.5 -59.5q-168 0 -291.5 75t-186.5 206.5t-63 303.5zM293 1434q0 57 39.5 97 t97.5 40q57 0 97 -40t40 -97q0 -58 -40 -98t-97 -40q-58 0 -97.5 39.5t-39.5 98.5zM360 668h517q-19 114 -83 186t-171 72q-102 0 -170.5 -70.5t-92.5 -187.5zM670 1434q0 57 40 97t97 40q58 0 97.5 -40t39.5 -97q0 -59 -39.5 -98.5t-97.5 -39.5q-57 0 -97 40t-40 98z" />
<glyph unicode="&#xec;" horiz-adv-x="581" d="M88 1577h270l134 -289h-248zM164 0v1128h256v-1128h-256z" />
<glyph unicode="&#xed;" horiz-adv-x="581" d="M88 1288l133 289h271l-156 -289h-248zM164 0v1128h256v-1128h-256z" />
<glyph unicode="&#xee;" horiz-adv-x="581" d="M-20 1288l172 289h278l172 -289h-207l-104 164l-105 -164h-206zM164 0v1128h256v-1128h-256z" />
<glyph unicode="&#xef;" horiz-adv-x="581" d="M-35 1434q0 57 39.5 97t97.5 40q57 0 97.5 -40t40.5 -97q0 -58 -40.5 -98t-97.5 -40q-58 0 -97.5 39.5t-39.5 98.5zM164 0v1128h256v-1128h-256zM342 1434q0 57 40 97t97 40q58 0 97.5 -40t39.5 -97q0 -59 -39.5 -98.5t-97.5 -39.5q-57 0 -97 40t-40 98z" />
<glyph unicode="&#xf0;" horiz-adv-x="1286" d="M102 565q0 162 66.5 294.5t191 211t283.5 78.5q37 0 125 -19q-39 70 -152 195q-157 -43 -225 -63l-43 153l141 39q-20 20 -70.5 68t-76.5 75h309q6 -6 33.5 -32.5t42.5 -42.5l213 59l43 -154l-129 -34q158 -185 244 -396.5t86 -431.5q0 -163 -66.5 -295.5t-191 -211 t-283.5 -78.5t-283.5 78.5t-191 211t-66.5 295.5zM348 565q0 -148 79.5 -250t215.5 -102q91 0 158.5 49t101 128t33.5 175q0 146 -78.5 247t-214.5 101t-215.5 -101t-79.5 -247z" />
<glyph unicode="&#xf1;" horiz-adv-x="1253" d="M150 0v1128h245v-182q78 98 178.5 150.5t202.5 52.5q150 0 239 -96t89 -258v-795h-258v760q0 73 -35.5 115.5t-101.5 42.5t-145.5 -47.5t-157.5 -153.5v-717h-256zM299 1378q10 71 70.5 129t144.5 58q43 0 92.5 -25.5t91.5 -50.5t68 -25q27 0 57.5 29.5t36.5 60.5l92 -67 q-8 -72 -68 -128t-145 -56q-39 0 -77.5 15.5t-63.5 34.5t-54 34.5t-50 15.5q-29 0 -60 -29.5t-39 -60.5q-46 28 -96 65z" />
<glyph unicode="&#xf2;" horiz-adv-x="1286" d="M102 565q0 162 66.5 294.5t191 211t283.5 78.5t283.5 -78.5t191 -211t66.5 -294.5q0 -163 -66.5 -295.5t-191 -211t-283.5 -78.5t-283.5 78.5t-191 211t-66.5 295.5zM348 565q0 -148 79.5 -250t215.5 -102q91 0 158.5 49t101 128t33.5 175q0 146 -78.5 247t-214.5 101 t-215.5 -101t-79.5 -247zM356 1577h271l133 -289h-248z" />
<glyph unicode="&#xf3;" horiz-adv-x="1286" d="M102 565q0 162 66.5 294.5t191 211t283.5 78.5t283.5 -78.5t191 -211t66.5 -294.5q0 -163 -66.5 -295.5t-191 -211t-283.5 -78.5t-283.5 78.5t-191 211t-66.5 295.5zM348 565q0 -148 79.5 -250t215.5 -102q91 0 158.5 49t101 128t33.5 175q0 146 -78.5 247t-214.5 101 t-215.5 -101t-79.5 -247zM504 1288l133 289h270l-155 -289h-248z" />
<glyph unicode="&#xf4;" horiz-adv-x="1286" d="M102 565q0 162 66.5 294.5t191 211t283.5 78.5t283.5 -78.5t191 -211t66.5 -294.5q0 -163 -66.5 -295.5t-191 -211t-283.5 -78.5t-283.5 78.5t-191 211t-66.5 295.5zM332 1288l172 289h278l172 -289h-206l-105 164l-104 -164h-207zM348 565q0 -148 79.5 -250t215.5 -102 q91 0 158.5 49t101 128t33.5 175q0 146 -78.5 247t-214.5 101t-215.5 -101t-79.5 -247z" />
<glyph unicode="&#xf5;" horiz-adv-x="1286" d="M102 565q0 162 66.5 294.5t191 211t283.5 78.5t283.5 -78.5t191 -211t66.5 -294.5q0 -163 -66.5 -295.5t-191 -211t-283.5 -78.5t-283.5 78.5t-191 211t-66.5 295.5zM315 1378q10 71 70.5 129t144.5 58q43 0 92.5 -25.5t91.5 -50.5t68 -25q27 0 58 29.5t37 60.5l92 -67 q-8 -72 -68 -128t-145 -56q-49 0 -96.5 25t-85.5 50t-64 25q-29 0 -59.5 -29.5t-38.5 -60.5q-51 31 -97 65zM348 565q0 -148 79.5 -250t215.5 -102q91 0 158.5 49t101 128t33.5 175q0 146 -78.5 247t-214.5 101t-215.5 -101t-79.5 -247z" />
<glyph unicode="&#xf6;" horiz-adv-x="1286" d="M102 565q0 162 66.5 294.5t191 211t283.5 78.5t283.5 -78.5t191 -211t66.5 -294.5q0 -163 -66.5 -295.5t-191 -211t-283.5 -78.5t-283.5 78.5t-191 211t-66.5 295.5zM317 1434q0 57 40 97t98 40q57 0 97 -40t40 -97q0 -58 -40 -98t-97 -40q-59 0 -98.5 40t-39.5 98z M348 565q0 -148 79.5 -250t215.5 -102q91 0 158.5 49t101 128t33.5 175q0 146 -78.5 247t-214.5 101t-215.5 -101t-79.5 -247zM694 1434q0 57 40 97t97 40q58 0 98 -40t40 -97q0 -58 -39.5 -98t-98.5 -40q-57 0 -97 40t-40 98z" />
<glyph unicode="&#xf7;" horiz-adv-x="1304" d="M199 547v209h905v-209h-905zM483 207q0 70 49.5 119t120.5 49q69 0 118.5 -49t49.5 -119t-49.5 -119t-118.5 -49q-71 0 -120.5 49t-49.5 119zM483 1100q0 69 50 119.5t120 50.5q69 0 118.5 -50.5t49.5 -119.5t-49.5 -118.5t-118.5 -49.5q-70 0 -120 49.5t-50 118.5z" />
<glyph unicode="&#xf8;" horiz-adv-x="1298" d="M109 565q0 162 66 294.5t190.5 211t283.5 78.5t283.5 -78.5t191 -211t66.5 -294.5q0 -163 -66.5 -295.5t-191 -211t-283.5 -78.5t-283.5 78.5t-190.5 211t-66 295.5zM354 565q0 -121 54 -215l378 529q-58 34 -137 34q-136 0 -215.5 -101t-79.5 -247zM510 250 q58 -37 139 -37q91 0 158.5 49t101 128t33.5 175q0 118 -51 209z" />
<glyph unicode="&#xf9;" horiz-adv-x="1228" d="M150 332v796h258v-751q0 -75 35 -120.5t100 -45.5q137 0 284 201v716h256v-1128h-245v180q-162 -200 -361 -200q-150 0 -238.5 95t-88.5 257zM412 1577h270l133 -289h-248z" />
<glyph unicode="&#xfa;" horiz-adv-x="1228" d="M150 332v796h258v-751q0 -75 35 -120.5t100 -45.5q137 0 284 201v716h256v-1128h-245v180q-162 -200 -361 -200q-150 0 -238.5 95t-88.5 257zM412 1288l133 289h270l-156 -289h-247z" />
<glyph unicode="&#xfb;" horiz-adv-x="1228" d="M150 332v796h258v-751q0 -75 35 -120.5t100 -45.5q137 0 284 201v716h256v-1128h-245v180q-162 -200 -361 -200q-150 0 -238.5 95t-88.5 257zM303 1288l172 289h279l172 -289h-207l-105 164l-104 -164h-207z" />
<glyph unicode="&#xfc;" horiz-adv-x="1228" d="M150 332v796h258v-751q0 -75 35 -120.5t100 -45.5q137 0 284 201v716h256v-1128h-245v180q-162 -200 -361 -200q-150 0 -238.5 95t-88.5 257zM289 1434q0 57 39.5 97t97.5 40q57 0 97 -40t40 -97q0 -58 -40 -98t-97 -40q-58 0 -97.5 39.5t-39.5 98.5zM666 1434 q0 57 40 97t97 40q58 0 97.5 -40t39.5 -97q0 -59 -39.5 -98.5t-97.5 -39.5q-57 0 -97 40t-40 98z" />
<glyph unicode="&#xfd;" horiz-adv-x="1171" d="M49 1128h270l273 -751l264 751h266l-481 -1259q-95 -245 -248 -361l-178 142q40 42 65.5 70.5t67 89t64.5 118.5l59 148zM383 1288l133 289h270l-155 -289h-248z" />
<glyph unicode="&#xfe;" horiz-adv-x="1343" d="M152 -471v2068h254v-614q117 166 331 166q140 0 256 -77.5t182 -211t66 -293.5q0 -161 -66.5 -295.5t-183.5 -213t-258 -78.5q-209 0 -325 167v-618h-256zM397 567q0 -96 33.5 -175.5t103 -130t162.5 -50.5q132 0 215.5 105t83.5 251q0 144 -84 249.5t-215 105.5 q-90 0 -159.5 -50.5t-104.5 -130.5t-35 -174z" />
<glyph unicode="&#xff;" horiz-adv-x="1171" d="M49 1128h270l273 -751l264 751h266l-481 -1259q-95 -245 -248 -361l-178 142q40 42 65.5 70.5t67 89t64.5 118.5l59 148zM260 1434q0 57 39.5 97t97.5 40q57 0 97.5 -40t40.5 -97q0 -58 -40.5 -98t-97.5 -40q-58 0 -97.5 39.5t-39.5 98.5zM637 1434q0 57 40 97t97 40 q58 0 97.5 -40t39.5 -97q0 -59 -39.5 -98.5t-97.5 -39.5q-57 0 -97 40t-40 98z" />
<glyph unicode="&#x152;" horiz-adv-x="2359" d="M92 748q0 159 54.5 301.5t150 246t231 164t289.5 60.5q286 0 477 -185v164h959v-231h-686v-389h551v-230h-551v-420h714v-229h-987v164q-184 -184 -458 -184q-161 0 -300.5 60t-236.5 163t-152 244.5t-55 300.5zM365 748q0 -147 58 -269.5t166.5 -196t246.5 -73.5 t246.5 73.5t166.5 196t58 269.5q0 148 -58 271t-166.5 196t-246.5 73t-246.5 -73t-166.5 -196t-58 -271z" />
<glyph unicode="&#x153;" horiz-adv-x="2070" d="M102 565q0 161 66.5 294t188.5 211.5t276 78.5q133 0 238.5 -59.5t172.5 -161.5q68 104 172.5 162.5t233.5 58.5q157 0 276.5 -81t180.5 -214t61 -295q0 -6 -1 -30t-1 -31h-801q17 -140 99 -215.5t213 -75.5q91 0 165 37t115 98l199 -106q-80 -117 -204 -186.5 t-286 -69.5q-289 0 -426 215q-68 -102 -171 -158.5t-236 -56.5q-154 0 -276 78t-188.5 211.5t-66.5 295.5zM348 565q0 -148 79.5 -250t215.5 -102q91 0 158.5 49t101 128t33.5 175q0 146 -78.5 247t-214.5 101t-215.5 -101t-79.5 -247zM1171 668h537q-18 112 -87 185 t-177 73q-103 0 -175.5 -71t-97.5 -187z" />
<glyph unicode="&#x178;" horiz-adv-x="1316" d="M33 1499h293l333 -653l334 653h291l-489 -897v-602h-271v600zM332 1804q0 57 39.5 97.5t97.5 40.5q57 0 97 -40.5t40 -97.5q0 -58 -40 -97.5t-97 -39.5q-59 0 -98 39.5t-39 97.5zM709 1804q0 57 40 97.5t97 40.5q58 0 97.5 -40.5t39.5 -97.5q0 -58 -39.5 -97.5 t-97.5 -39.5q-57 0 -97 39.5t-40 97.5z" />
<glyph unicode="&#x2c6;" horiz-adv-x="720" d="M41 1288l172 289h279l172 -289h-207l-105 164l-104 -164h-207z" />
<glyph unicode="&#x2dc;" horiz-adv-x="776" d="M61 1378q10 71 70.5 129t144.5 58q43 0 92.5 -25.5t91.5 -50.5t68 -25q27 0 58 29.5t37 60.5l92 -67q-8 -72 -68 -128t-145 -56q-49 0 -96.5 25t-85.5 50t-64 25q-29 0 -59.5 -29.5t-38.5 -60.5q-51 31 -97 65z" />
<glyph unicode="&#x2000;" horiz-adv-x="974" />
<glyph unicode="&#x2001;" horiz-adv-x="1948" />
<glyph unicode="&#x2002;" horiz-adv-x="974" />
<glyph unicode="&#x2003;" horiz-adv-x="1948" />
<glyph unicode="&#x2004;" horiz-adv-x="649" />
<glyph unicode="&#x2005;" horiz-adv-x="487" />
<glyph unicode="&#x2006;" horiz-adv-x="324" />
<glyph unicode="&#x2007;" horiz-adv-x="324" />
<glyph unicode="&#x2008;" horiz-adv-x="243" />
<glyph unicode="&#x2009;" horiz-adv-x="389" />
<glyph unicode="&#x200a;" horiz-adv-x="108" />
<glyph unicode="&#x2010;" horiz-adv-x="825" d="M102 553v213h621v-213h-621z" />
<glyph unicode="&#x2011;" horiz-adv-x="825" d="M102 553v213h621v-213h-621z" />
<glyph unicode="&#x2012;" horiz-adv-x="825" d="M102 553v213h621v-213h-621z" />
<glyph unicode="&#x2013;" horiz-adv-x="1363" d="M188 547v209h986v-209h-986z" />
<glyph unicode="&#x2014;" horiz-adv-x="2048" d="M133 547v209h1782v-209h-1782z" />
<glyph unicode="&#x2018;" horiz-adv-x="516" d="M90 1001q0 114 60 252.5t147 266.5l131 -47q-46 -74 -83 -160.5t-48 -155.5q56 -12 93.5 -57.5t37.5 -106.5q0 -70 -49.5 -120t-118.5 -50q-71 0 -120.5 51t-49.5 127z" />
<glyph unicode="&#x2019;" horiz-adv-x="516" d="M90 870q46 74 83 160.5t48 155.5q-56 12 -93.5 57.5t-37.5 106.5q0 70 49.5 120t118.5 50q71 0 120.5 -51.5t49.5 -127.5q0 -114 -60 -252t-147 -266z" />
<glyph unicode="&#x201a;" horiz-adv-x="516" d="M86 147q0 70 49.5 119t118.5 49q71 0 120.5 -50.5t49.5 -125.5q0 -115 -60.5 -253.5t-146.5 -264.5l-127 57q104 164 127 306q-57 12 -94 57.5t-37 105.5z" />
<glyph unicode="&#x201c;" horiz-adv-x="946" d="M90 1001q0 114 60 252.5t147 266.5l131 -47q-46 -74 -83 -160.5t-48 -155.5q56 -12 93.5 -57.5t37.5 -106.5q0 -70 -49.5 -120t-118.5 -50q-71 0 -120.5 51t-49.5 127zM520 1001q0 114 60 252.5t147 266.5l131 -47q-46 -74 -83 -160.5t-48 -155.5q56 -12 93.5 -57.5 t37.5 -106.5q0 -70 -49.5 -120t-118.5 -50q-71 0 -120.5 51t-49.5 127z" />
<glyph unicode="&#x201d;" horiz-adv-x="946" d="M90 870q46 74 83 160.5t48 155.5q-56 12 -93.5 57.5t-37.5 106.5q0 70 49.5 120t118.5 50q71 0 120.5 -51.5t49.5 -127.5q0 -114 -60 -252t-147 -266zM520 870q46 74 83 160.5t48 155.5q-56 12 -93.5 57.5t-37.5 106.5q0 70 49.5 120t118.5 50q71 0 120.5 -51.5 t49.5 -127.5q0 -114 -60 -252t-147 -266z" />
<glyph unicode="&#x201e;" horiz-adv-x="946" d="M86 147q0 70 49.5 119t118.5 49q71 0 120.5 -50.5t49.5 -125.5q0 -115 -60.5 -253.5t-146.5 -264.5l-127 57q104 164 127 306q-57 12 -94 57.5t-37 105.5zM516 147q0 70 49.5 119t118.5 49q71 0 120.5 -50.5t49.5 -125.5q0 -115 -60.5 -253.5t-146.5 -264.5l-127 57 q104 164 127 306q-57 12 -94 57.5t-37 105.5z" />
<glyph unicode="&#x2022;" horiz-adv-x="1363" d="M223 629q0 191 134.5 326t324.5 135q125 0 231 -62t168 -168t62 -231q0 -190 -135 -324.5t-326 -134.5q-190 0 -324.5 134t-134.5 325z" />
<glyph unicode="&#x2026;" horiz-adv-x="1550" d="M90 147q0 71 49 119.5t119 48.5t119 -48.5t49 -119.5q0 -70 -48.5 -118.5t-119.5 -48.5t-119.5 48.5t-48.5 118.5zM606 147q0 70 49.5 119t118.5 49q71 0 120.5 -49t49.5 -119t-49.5 -118.5t-120.5 -48.5q-69 0 -118.5 48.5t-49.5 118.5zM1124 147q0 71 49 119.5 t119 48.5t119 -48.5t49 -119.5q0 -70 -48.5 -118.5t-119.5 -48.5t-119.5 48.5t-48.5 118.5z" />
<glyph unicode="&#x202f;" horiz-adv-x="389" />
<glyph unicode="&#x2039;" horiz-adv-x="749" d="M96 586l355 461h170l-232 -461l232 -463h-170z" />
<glyph unicode="&#x203a;" horiz-adv-x="749" d="M129 123l231 463l-231 461h170l354 -461l-354 -463h-170z" />
<glyph unicode="&#x205f;" horiz-adv-x="487" />
<glyph unicode="&#x20ac;" d="M84 502v176h143q-2 25 -2 78q0 32 4 94h-145v178h178q60 227 222.5 359.5t404.5 132.5q176 0 330 -90l-111 -199q-95 65 -219 65q-280 0 -371 -268h455v-178h-496q-4 -62 -4 -94q0 -53 2 -78h498v-176h-459q42 -139 135 -220t240 -81q131 0 231 67l121 -192 q-157 -96 -352 -96q-245 0 -407.5 142t-223.5 380h-174z" />
<glyph unicode="&#x2122;" horiz-adv-x="1525" d="M125 1384v115h504v-115h-180v-530h-144v530h-180zM721 854v645h143l176 -321l174 321h142v-645h-133v401l-156 -278h-63l-148 276v-399h-135z" />
<glyph unicode="&#x25fc;" horiz-adv-x="1126" d="M0 0v1126h1126v-1126h-1126z" />
<glyph unicode="&#xfb01;" horiz-adv-x="1282" d="M37 924v204h178v152q0 326 340 326q112 0 211 -41l-45 -191q-110 23 -133 23q-69 0 -93 -31t-24 -100v-138h236v-204h-236v-924h-256v924h-178zM850 1415q0 60 40.5 102t100.5 42t102 -42t42 -102t-42 -100.5t-102 -40.5t-100.5 40.5t-40.5 100.5zM864 0v1128h256v-1128 h-256z" />
<glyph unicode="&#xfb02;" horiz-adv-x="1277" d="M37 924v204h178v152q0 326 340 326q112 0 211 -41l-45 -191q-110 23 -133 23q-69 0 -93 -31t-24 -100v-138h236v-204h-236v-924h-256v924h-178zM860 0v1597h256v-1597h-256z" />
<glyph unicode="&#xfb03;" horiz-adv-x="1982" d="M37 924v204h178v152q0 326 340 326q112 0 211 -41l-45 -191q-110 23 -133 23q-69 0 -93 -31t-24 -100v-138h236v-204h-236v-924h-256v924h-178zM737 924v204h178v152q0 326 340 326q112 0 211 -41l-45 -191q-110 23 -133 23q-69 0 -93 -31t-24 -100v-138h236v-204h-236 v-924h-256v924h-178zM1550 1415q0 60 41 102t101 42t101.5 -42t41.5 -102t-41.5 -100.5t-101.5 -40.5t-101 40.5t-41 100.5zM1565 0v1128h256v-1128h-256z" />
<glyph unicode="&#xfb04;" horiz-adv-x="1978" d="M37 924v204h178v152q0 326 340 326q112 0 211 -41l-45 -191q-110 23 -133 23q-69 0 -93 -31t-24 -100v-138h236v-204h-236v-924h-256v924h-178zM737 924v204h178v152q0 326 340 326q112 0 211 -41l-45 -191q-110 23 -133 23q-69 0 -93 -31t-24 -100v-138h236v-204h-236 v-924h-256v924h-178zM1561 0v1597h256v-1597h-256z" />
</font>
</defs>
</svg>
